<?xml version="1.0" encoding="utf-8" standalone="no"?><!DOCTYPE svg PUBLIC "-//W3C//DTD SVG 1.1//EN" "http://www.w3.org/Graphics/SVG/1.1/DTD/svg11.dtd">
<svg preserveAspectRatio="xMinYMin meet" width="100%" height="100%" viewBox="0 0 573.750 483.750"  version="1.1" xmlns="http://www.w3.org/2000/svg" xmlns:xlink="http://www.w3.org/1999/xlink">
  <desc>Matlab Figure Converted by PLOT2SVG written by Juerg Schwizer</desc>
  <g id="topgroup">
  <g id ="ID000000">
  <clipPath id="ID000001">
    <rect x="114.750" y="64.118" width="344.250" height="338.625"/>
  </clipPath>
      <polygon fill="#ffffff" fill-opacity="1.00" stroke="none" stroke-width="0.5pt" stroke-opacity="1.00" stroke-dasharray="none" points="114.750,402.743 459.000,402.743 459.000,64.118 114.750,64.118 "/>
      <polygon fill="#ffffff" fill-opacity="1.00" stroke="none" stroke-width="0.5pt" stroke-opacity="1.00" stroke-dasharray="none" points="114.750,64.118 459.000,64.118 459.000,64.118 114.750,64.118 "/>
      <polygon fill="#ffffff" fill-opacity="1.00" stroke="none" stroke-width="0.5pt" stroke-opacity="1.00" stroke-dasharray="none" points="114.750,402.743 114.750,402.743 114.750,64.118 114.750,64.118 "/>
    <g>
<g id="ID000002" clip-path="url(#ID000001)" >
<g>
<circle cx="114.750" cy="142.135" r="3.333" fill="#000000" stroke="none" stroke-width="4.0pt" />
<circle cx="124.701" cy="99.671" r="3.333" fill="#000000" stroke="none" stroke-width="4.0pt" />
<circle cx="134.652" cy="109.243" r="3.333" fill="#000000" stroke="none" stroke-width="4.0pt" />
<circle cx="144.603" cy="98.234" r="3.333" fill="#000000" stroke="none" stroke-width="4.0pt" />
<circle cx="154.553" cy="160.556" r="3.333" fill="#000000" stroke="none" stroke-width="4.0pt" />
<circle cx="164.523" cy="68.626" r="3.333" fill="#000000" stroke="none" stroke-width="4.0pt" />
<circle cx="174.474" cy="147.941" r="3.333" fill="#000000" stroke="none" stroke-width="4.0pt" />
<circle cx="184.407" cy="100.462" r="3.333" fill="#000000" stroke="none" stroke-width="4.0pt" />
<circle cx="194.358" cy="107.856" r="3.333" fill="#000000" stroke="none" stroke-width="4.0pt" />
<circle cx="204.291" cy="161.700" r="3.333" fill="#000000" stroke="none" stroke-width="4.0pt" />
<circle cx="214.242" cy="175.756" r="3.333" fill="#000000" stroke="none" stroke-width="4.0pt" />
<circle cx="224.193" cy="175.061" r="3.333" fill="#000000" stroke="none" stroke-width="4.0pt" />
<circle cx="234.144" cy="191.092" r="3.333" fill="#000000" stroke="none" stroke-width="4.0pt" />
<circle cx="244.077" cy="210.452" r="3.333" fill="#000000" stroke="none" stroke-width="4.0pt" />
<circle cx="254.028" cy="192.887" r="3.333" fill="#000000" stroke="none" stroke-width="4.0pt" />
<circle cx="263.996" cy="216.011" r="3.333" fill="#000000" stroke="none" stroke-width="4.0pt" />
<circle cx="273.930" cy="234.104" r="3.333" fill="#000000" stroke="none" stroke-width="4.0pt" />
<circle cx="283.881" cy="258.440" r="3.333" fill="#000000" stroke="none" stroke-width="4.0pt" />
<circle cx="293.831" cy="275.244" r="3.333" fill="#000000" stroke="none" stroke-width="4.0pt" />
<circle cx="303.765" cy="257.555" r="3.333" fill="#000000" stroke="none" stroke-width="4.0pt" />
<circle cx="313.698" cy="290.935" r="3.333" fill="#000000" stroke="none" stroke-width="4.0pt" />
<circle cx="323.649" cy="277.334" r="3.333" fill="#000000" stroke="none" stroke-width="4.0pt" />
<circle cx="333.600" cy="325.890" r="3.333" fill="#000000" stroke="none" stroke-width="4.0pt" />
<circle cx="343.551" cy="284.886" r="3.333" fill="#000000" stroke="none" stroke-width="4.0pt" />
<circle cx="353.501" cy="300.284" r="3.333" fill="#000000" stroke="none" stroke-width="4.0pt" />
<circle cx="363.452" cy="301.850" r="3.333" fill="#000000" stroke="none" stroke-width="4.0pt" />
<circle cx="373.386" cy="330.855" r="3.333" fill="#000000" stroke="none" stroke-width="4.0pt" />
<circle cx="383.336" cy="319.037" r="3.333" fill="#000000" stroke="none" stroke-width="4.0pt" />
<circle cx="393.287" cy="322.223" r="3.333" fill="#000000" stroke="none" stroke-width="4.0pt" />
<circle cx="403.238" cy="333.351" r="3.333" fill="#000000" stroke="none" stroke-width="4.0pt" />
<circle cx="413.190" cy="352.921" r="3.333" fill="#000000" stroke="none" stroke-width="4.0pt" />
<circle cx="423.141" cy="336.901" r="3.333" fill="#000000" stroke="none" stroke-width="4.0pt" />
<circle cx="433.092" cy="346.852" r="3.333" fill="#000000" stroke="none" stroke-width="4.0pt" />
<circle cx="443.043" cy="349.366" r="3.333" fill="#000000" stroke="none" stroke-width="4.0pt" />
<circle cx="452.976" cy="348.732" r="3.333" fill="#000000" stroke="none" stroke-width="4.0pt" />
<circle cx="462.908" cy="364.503" r="3.333" fill="#000000" stroke="none" stroke-width="4.0pt" />
<circle cx="472.841" cy="355.074" r="3.333" fill="#000000" stroke="none" stroke-width="4.0pt" />
<circle cx="482.792" cy="371.338" r="3.333" fill="#000000" stroke="none" stroke-width="4.0pt" />
<circle cx="492.743" cy="371.559" r="3.333" fill="#000000" stroke="none" stroke-width="4.0pt" />
<circle cx="502.695" cy="366.518" r="3.333" fill="#000000" stroke="none" stroke-width="4.0pt" />
</g>
</g>
<g id="ID000003" >
  <g transform="translate(286.407,472.960)">
    <g transform="rotate(-0.0)">
      <text x="0.000" y="0.000" font-family="Helvetica" text-anchor="middle" font-size="28pt" fill="#000000" >Time (sec)</text>
    </g>
  </g>
</g>
<g id="ID000004" >
  <g transform="translate(77.316,234.834)">
    <g transform="rotate(-90.0)">
      <text x="0.000" y="0.000" font-family="Helvetica" text-anchor="middle" font-size="28pt" fill="#000000" >Intensity (counts/5s)</text>
    </g>
  </g>
</g>
<g id="ID000005" >
</g>
    </g>
    <g>
      <polyline fill="none" stroke="#000000" stroke-width="0.5pt" stroke-dasharray="none" points="229.500,402.743 229.500,399.301 "/>
      <polyline fill="none" stroke="#000000" stroke-width="0.5pt" stroke-dasharray="none" points="344.250,402.743 344.250,399.301 "/>
      <polyline fill="none" stroke="#000000" stroke-width="0.5pt" stroke-dasharray="none" points="114.750,402.743 459.000,402.743 "/>
      <polyline fill="none" stroke="#000000" stroke-width="0.5pt" stroke-dasharray="none" points="229.500,64.118 229.500,67.561 "/>
      <polyline fill="none" stroke="#000000" stroke-width="0.5pt" stroke-dasharray="none" points="344.250,64.118 344.250,67.561 "/>
      <polyline fill="none" stroke="#000000" stroke-width="0.5pt" stroke-dasharray="none" points="114.750,64.118 459.000,64.118 "/>
  <g transform="translate(114.750,442.703)">
    <g transform="rotate(-0.0)">
      <text x="0.000" y="0.000" font-family="Helvetica" text-anchor="middle" font-size="28pt" fill="#000000" >0</text>
    </g>
  </g>
  <g transform="translate(229.500,442.703)">
    <g transform="rotate(-0.0)">
      <text x="0.000" y="0.000" font-family="Helvetica" text-anchor="middle" font-size="28pt" fill="#000000" >100</text>
    </g>
  </g>
  <g transform="translate(344.250,442.703)">
    <g transform="rotate(-0.0)">
      <text x="0.000" y="0.000" font-family="Helvetica" text-anchor="middle" font-size="28pt" fill="#000000" >200</text>
    </g>
  </g>
  <g transform="translate(459.000,442.703)">
    <g transform="rotate(-0.0)">
      <text x="0.000" y="0.000" font-family="Helvetica" text-anchor="middle" font-size="28pt" fill="#000000" >300</text>
    </g>
  </g>
      <polyline fill="none" stroke="#000000" stroke-width="0.5pt" stroke-dasharray="none" points="114.750,318.087 118.193,318.087 "/>
      <polyline fill="none" stroke="#000000" stroke-width="0.5pt" stroke-dasharray="none" points="114.750,233.431 118.193,233.431 "/>
      <polyline fill="none" stroke="#000000" stroke-width="0.5pt" stroke-dasharray="none" points="114.750,148.775 118.193,148.775 "/>
      <polyline fill="none" stroke="#000000" stroke-width="0.5pt" stroke-dasharray="none" points="114.750,402.743 114.750,64.118 "/>
      <polyline fill="none" stroke="#000000" stroke-width="0.5pt" stroke-dasharray="none" points="459.000,318.087 455.557,318.087 "/>
      <polyline fill="none" stroke="#000000" stroke-width="0.5pt" stroke-dasharray="none" points="459.000,233.431 455.557,233.431 "/>
      <polyline fill="none" stroke="#000000" stroke-width="0.5pt" stroke-dasharray="none" points="459.000,148.775 455.557,148.775 "/>
      <polyline fill="none" stroke="#000000" stroke-width="0.5pt" stroke-dasharray="none" points="459.000,402.743 459.000,64.118 "/>
  <g transform="translate(107.865,415.400)">
    <g transform="rotate(-0.0)">
      <text x="0.000" y="0.000" font-family="Helvetica" text-anchor="end" font-size="28pt" fill="#000000" >0</text>
    </g>
  </g>
  <g transform="translate(107.865,330.743)">
    <g transform="rotate(-0.0)">
      <text x="0.000" y="0.000" font-family="Helvetica" text-anchor="end" font-size="28pt" fill="#000000" >1</text>
    </g>
  </g>
  <g transform="translate(107.865,246.087)">
    <g transform="rotate(-0.0)">
      <text x="0.000" y="0.000" font-family="Helvetica" text-anchor="end" font-size="28pt" fill="#000000" >2</text>
    </g>
  </g>
  <g transform="translate(107.865,161.431)">
    <g transform="rotate(-0.0)">
      <text x="0.000" y="0.000" font-family="Helvetica" text-anchor="end" font-size="28pt" fill="#000000" >3</text>
    </g>
  </g>
  <g transform="translate(107.865,76.775)">
    <g transform="rotate(-0.0)">
      <text x="0.000" y="0.000" font-family="Helvetica" text-anchor="end" font-size="28pt" fill="#000000" >4</text>
    </g>
  </g>
      <polyline fill="none" stroke="#000000" stroke-width="0.5pt" stroke-dasharray="none" points="114.750,402.743 114.750,399.357 "/>
      <polyline fill="none" stroke="#000000" stroke-width="0.5pt" stroke-dasharray="none" points="114.750,402.743 114.750,402.743 "/>
  <g transform="translate(114.750,42.087)">
    <g transform="rotate(-0.0)">
      <text x="0.000" y="0.000" font-family="Helvetica" text-anchor="start" font-size="28pt" fill="#000000" >&#215; 10<tspan font-size="21.0pt" dy="-21.0pt">5</tspan></text>
    </g>
  </g>
    </g>
  </g>
  <g id ="ID000006">
  <clipPath id="ID000007">
    <rect x="0.000" y="0.000" width="573.750" height="483.750"/>
  </clipPath>
    <g>
    </g>
  </g>
  </g>
</svg>
