<?xml version="1.0" encoding="UTF-8" standalone="no"?>
<!-- Created with Inkscape (http://www.inkscape.org/) -->

<svg
   xmlns:dc="http://purl.org/dc/elements/1.1/"
   xmlns:cc="http://creativecommons.org/ns#"
   xmlns:rdf="http://www.w3.org/1999/02/22-rdf-syntax-ns#"
   xmlns:svg="http://www.w3.org/2000/svg"
   xmlns="http://www.w3.org/2000/svg"
   xmlns:sodipodi="http://sodipodi.sourceforge.net/DTD/sodipodi-0.dtd"
   xmlns:inkscape="http://www.inkscape.org/namespaces/inkscape"
   width="287.09799"
   height="212.24745"
   id="svg2"
   version="1.1"
   inkscape:version="0.91 r13725"
   sodipodi:docname="background.svg"
   inkscape:export-filename="C:\Users\aquiles\Documents\KCN\kcn-paper\Figures\04_Supporting\03_Background\background.png"
   inkscape:export-xdpi="600.00421"
   inkscape:export-ydpi="600.00421">
  <defs
     id="defs4">
    <clipPath
       id="ID000001">
      <rect
         id="rect3137"
         height="298.078"
         width="389.81299"
         y="29.108999"
         x="85.313004" />
    </clipPath>
  </defs>
  <sodipodi:namedview
     id="base"
     pagecolor="#ffffff"
     bordercolor="#666666"
     borderopacity="1.0"
     inkscape:pageopacity="1"
     inkscape:pageshadow="2"
     inkscape:zoom="1.4"
     inkscape:cx="17.424742"
     inkscape:cy="199.22713"
     inkscape:document-units="px"
     inkscape:current-layer="layer1"
     showgrid="false"
     units="mm"
     inkscape:window-width="1920"
     inkscape:window-height="1017"
     inkscape:window-x="-8"
     inkscape:window-y="-8"
     inkscape:window-maximized="1"
     fit-margin-top="0"
     fit-margin-left="0"
     fit-margin-right="0"
     fit-margin-bottom="0" />
  <metadata
     id="metadata7">
    <rdf:RDF>
      <cc:Work
         rdf:about="">
        <dc:format>image/svg+xml</dc:format>
        <dc:type
           rdf:resource="http://purl.org/dc/dcmitype/StillImage" />
        <dc:title></dc:title>
      </cc:Work>
    </rdf:RDF>
  </metadata>
  <g
     inkscape:label="Layer 1"
     inkscape:groupmode="layer"
     id="layer1"
     transform="translate(-1.7857127,-7.0343757)">
    <rect
       style="fill:#ffffff;stroke:none"
       x="1.7857127"
       y="7.0343757"
       width="287.09799"
       height="212.24745"
       id="rect3133" />
    <polygon
       id="polygon3139"
       points="475.125,29.109 85.313,29.109 85.313,327.188 475.125,327.188 "
       style="fill:#ffffff;fill-opacity:1;stroke:none"
       transform="matrix(0.54685334,0,0,0.54685334,1.7857127,7.0343756)" />
    <polygon
       id="polygon3141"
       points="475.125,29.109 85.313,29.109 85.313,29.109 475.125,29.109 "
       style="fill:#ffffff;fill-opacity:1;stroke:none"
       transform="matrix(0.54685334,0,0,0.54685334,1.7857127,7.0343756)" />
    <polygon
       id="polygon3143"
       points="85.313,29.109 85.313,29.109 85.313,327.188 85.313,327.188 "
       style="fill:#ffffff;fill-opacity:1;stroke:none"
       transform="matrix(0.54685334,0,0,0.54685334,1.7857127,7.0343756)" />
    <polyline
       id="polyline3148"
       points="85.671,304.832 86.180,304.832 86.690,304.832 87.201,312.284 87.712,312.284 88.221,312.284 88.731,304.832 89.242,304.832 89.751,312.284 90.261,308.558 90.772,312.284 91.281,301.106 91.791,304.832 92.302,297.380 92.811,308.558 93.321,293.654 93.832,297.380 94.341,304.832 94.851,301.106 95.362,304.832 95.871,289.928 96.381,319.736 96.892,304.832 97.401,293.654 97.911,286.202 98.422,293.654 98.931,286.202 99.441,301.106 99.952,304.832 100.461,304.832 100.971,304.832 101.482,282.476 101.991,293.654 102.501,297.380 103.010,308.558 103.521,289.928 104.031,301.106 104.540,304.832 105.051,323.462 105.561,293.654 106.070,297.380 106.581,293.654 107.089,316.010 107.600,312.284 108.111,308.558 108.619,293.654 109.130,293.654 109.639,301.106 110.149,312.284 110.660,312.284 111.169,278.750 111.679,301.106 112.188,301.106 112.699,316.010 113.209,312.284 113.718,289.928 114.229,289.928 114.737,308.558 115.248,297.380 115.759,312.284 116.268,297.380 116.778,293.654 117.287,301.106 117.798,297.380 118.306,278.750 118.817,297.380 119.328,278.750 119.836,297.380 120.347,297.380 120.856,297.380 121.366,316.010 121.875,293.654 122.386,282.476 122.894,286.202 123.405,304.832 123.916,297.380 124.424,308.558 124.935,289.928 125.444,297.380 125.954,286.202 126.463,293.654 126.974,289.928 127.482,297.380 127.993,297.380 128.502,308.558 129.012,289.928 129.521,275.024 130.032,316.010 130.540,312.284 131.051,312.284 131.562,319.736 132.071,286.202 132.581,286.202 133.090,304.832 133.601,308.558 134.109,308.558 134.620,293.654 135.129,297.380 135.639,297.380 136.148,278.750 136.659,293.654 137.167,286.202 137.678,293.654 138.187,282.476 138.695,271.298 139.206,289.928 139.715,282.476 140.225,278.750 140.734,297.380 141.245,293.654 141.753,286.202 142.264,278.750 142.773,286.202 143.283,297.380 143.792,289.928 144.303,286.202 144.812,293.654 145.322,275.024 145.831,304.832 146.342,282.476 146.850,286.202 147.359,301.106 147.870,293.654 148.378,286.202 148.889,293.654 149.398,275.024 149.908,297.380 150.417,297.380 150.928,263.846 151.436,297.380 151.945,286.202 152.456,289.928 152.964,289.928 153.475,278.750 153.984,289.928 154.493,275.024 155.003,293.654 155.512,282.476 156.023,263.846 156.531,271.298 157.042,282.476 157.551,267.572 158.059,263.846 158.570,275.024 159.079,297.380 159.589,278.750 160.098,312.284 160.607,293.654 161.117,260.120 161.626,241.490 162.137,260.120 162.645,278.750 163.154,260.120 163.665,256.394 164.174,256.394 164.682,267.572 165.193,289.928 165.702,245.216 166.212,267.572 166.721,267.572 167.230,241.490 167.740,226.586 168.249,241.490 168.758,215.408 169.268,230.312 169.777,185.600 170.286,219.134 170.796,226.586 171.305,215.408 171.816,200.504 172.324,226.586 172.833,189.326 173.344,170.696 173.853,174.422 174.361,189.326 174.872,211.682 175.381,185.600 175.889,166.971 176.400,170.696 176.909,181.874 177.417,193.052 177.928,152.067 178.437,170.696 178.945,163.245 179.454,155.793 179.965,170.696 180.474,174.422 180.982,166.971 181.493,170.696 182.002,148.341 182.510,163.245 183.021,163.245 183.530,163.245 184.038,144.615 184.549,107.355 185.058,137.163 185.566,163.245 186.075,137.163 186.586,111.081 187.094,170.696 187.603,159.519 188.114,152.067 188.623,129.711 189.131,129.711 189.640,103.629 190.151,125.985 190.659,118.533 191.168,129.711 191.677,96.177 192.187,122.259 192.696,144.615 193.205,129.711 193.715,88.725 194.224,114.807 194.733,111.081 195.242,129.711 195.752,118.533 196.261,163.245 196.770,125.985 197.278,125.985 197.787,122.259 198.298,148.341 198.806,144.615 199.315,107.355 199.824,140.889 200.334,152.067 200.843,129.711 201.352,181.874 201.861,170.696 202.371,155.793 202.880,152.067 203.389,140.889 203.897,163.245 204.406,181.874 204.917,185.600 205.425,185.600 205.934,166.971 206.443,200.504 206.952,185.600 207.462,193.052 207.971,178.148 208.480,196.778 208.988,200.504 209.497,193.052 210.008,282.476 210.516,226.586 211.025,189.326 211.534,230.312 212.042,181.874 212.553,215.408 213.062,226.586 213.571,200.504 214.079,234.038 214.588,230.312 215.097,230.312 215.607,215.408 216.116,241.490 216.625,248.942 217.133,226.586 217.642,252.668 218.151,256.394 218.662,234.038 219.170,215.408 219.679,241.490 220.188,263.846 220.696,237.764 221.205,241.490 221.714,245.216 222.224,237.764 222.733,252.668 223.242,248.942 223.751,237.764 224.259,237.764 224.768,234.038 225.277,234.038 225.785,248.942 226.296,248.942 226.805,234.038 227.313,241.490 227.822,230.312 228.331,222.860 228.840,207.956 229.348,241.490 229.857,245.216 230.368,237.764 230.876,234.038 231.385,226.586 231.894,211.682 232.402,252.668 232.911,211.682 233.420,252.668 233.929,241.490 234.437,282.476 234.946,230.312 235.455,245.216 235.965,204.230 236.474,237.764 236.983,222.860 237.491,241.490 238.000,226.586 238.509,234.038 239.018,237.764 239.526,241.490 240.035,219.134 240.544,230.312 241.052,237.764 241.561,245.216 242.070,207.956 242.578,200.504 243.087,200.504 243.598,237.764 244.107,230.312 244.615,252.668 245.124,219.134 245.633,222.860 246.141,230.312 246.650,222.860 247.159,215.408 247.667,222.860 248.176,207.956 248.685,211.682 249.194,219.134 249.702,219.134 250.211,237.764 250.720,226.586 251.228,193.052 251.737,226.586 252.246,263.846 252.755,241.490 253.263,219.134 253.772,252.668 254.281,245.216 254.789,222.860 255.298,196.778 255.807,234.038 256.315,230.312 256.824,222.860 257.333,226.586 257.842,230.312 258.350,263.846 258.859,234.038 259.368,256.394 259.876,215.408 260.385,241.490 260.894,207.956 261.403,222.860 261.911,200.504 262.420,234.038 262.929,256.394 263.437,237.764 263.946,222.860 264.455,226.586 264.963,230.312 265.472,222.860 265.981,241.490 266.490,222.860 266.998,230.312 267.507,215.408 268.014,222.860 268.522,211.682 269.031,245.216 269.540,222.860 270.049,237.764 270.557,226.586 271.066,234.038 271.575,237.764 272.083,245.216 272.592,256.394 273.101,230.312 273.609,211.682 274.118,226.586 274.627,207.956 275.136,230.312 275.642,211.682 276.151,237.764 276.660,256.394 277.168,211.682 277.677,245.216 278.186,222.860 278.695,230.312 279.203,211.682 279.712,215.408 280.221,230.312 280.729,204.230 281.236,215.408 281.745,237.764 282.254,215.408 282.762,219.134 283.271,211.682 283.780,215.408 284.288,241.490 284.797,219.134 285.306,234.038 285.813,226.586 286.321,230.312 286.830,222.860 287.339,237.764 287.847,222.860 288.356,204.230 288.865,226.586 289.372,230.312 289.880,241.490 290.389,211.682 290.898,204.230 291.406,215.408 291.915,215.408 292.424,219.134 292.931,204.230 293.439,193.052 293.948,226.586 294.457,222.860 294.965,204.230 295.474,241.490 295.981,222.860 296.490,222.860 296.998,200.504 297.507,211.682 298.016,234.038 298.524,252.668 299.031,226.586 299.540,226.586 300.049,248.942 300.557,230.312 301.066,230.312 301.573,222.860 302.081,215.408 302.590,207.956 303.099,245.216 303.608,219.134 304.116,252.668 304.623,219.134 305.132,230.312 305.640,241.490 306.149,271.298 306.656,234.038 307.165,241.490 307.673,245.216 308.182,241.490 308.691,207.956 309.197,237.764 309.706,215.408 310.215,252.668 310.724,226.586 311.230,222.860 311.739,204.230 312.248,248.942 312.756,256.394 313.265,256.394 313.772,234.038 314.281,234.038 314.789,222.860 315.298,226.586 315.805,219.134 316.313,226.586 316.822,226.586 317.331,245.216 317.838,234.038 318.346,260.120 318.855,234.038 319.364,219.134 319.870,241.490 320.379,230.312 320.888,245.216 321.395,245.216 321.903,226.586 322.412,222.860 322.921,237.764 323.428,222.860 323.936,237.764 324.445,234.038 324.952,237.764 325.460,252.668 325.969,237.764 326.478,260.120 326.985,252.668 327.493,252.668 328.002,219.134 328.509,237.764 329.017,230.312 329.526,230.312 330.035,211.682 330.542,256.394 331.050,256.394 331.559,226.586 332.066,267.572 332.574,248.942 333.083,248.942 333.590,230.312 334.099,230.312 334.607,222.860 335.114,245.216 335.623,245.216 336.132,260.120 336.638,230.312 337.147,237.764 337.656,234.038 338.162,256.394 338.671,245.216 339.180,237.764 339.687,245.216 340.195,248.942 340.704,248.942 341.211,252.668 341.719,245.216 342.226,263.846 342.735,267.572 343.244,252.668 343.750,234.038 344.259,234.038 344.768,263.846 345.275,241.490 345.783,263.846 346.292,256.394 346.799,245.216 347.307,237.764 347.814,252.668 348.323,248.942 348.832,256.394 349.338,237.764 349.847,211.682 350.354,219.134 350.863,248.942 351.371,237.764 351.878,245.216 352.387,252.668 352.893,263.846 353.402,241.490 353.911,263.846 354.418,234.038 354.926,263.846 355.433,234.038 355.942,245.216 356.450,248.942 356.957,267.572 357.466,260.120 357.973,256.394 358.481,245.216 358.988,237.764 359.497,237.764 360.006,230.312 360.512,241.490 361.021,237.764 361.528,256.394 362.036,245.216 362.543,275.024 363.052,230.312 363.561,271.298 364.067,234.038 364.576,260.120 365.083,271.298 365.592,256.394 366.098,237.764 366.607,241.490 367.114,260.120 367.623,256.394 368.129,234.038 368.638,252.668 369.145,260.120 369.653,234.038 370.162,256.394 370.669,263.846 371.178,245.216 371.684,248.942 372.193,234.038 372.700,286.202 373.209,282.476 373.715,256.394 374.224,263.846 374.731,263.846 375.239,256.394 375.746,260.120 376.255,263.846 376.762,237.764 377.270,271.298 377.777,248.942 378.286,275.024 378.793,252.668 379.301,260.120 379.808,260.120 380.317,263.846 380.824,289.928 381.332,252.668 381.839,252.668 382.348,278.750 382.854,263.846 383.361,263.846 383.870,289.928 384.377,286.202 384.885,267.572 385.392,275.024 385.901,263.846 386.408,278.750 386.916,248.942 387.423,267.572 387.932,282.476 388.438,263.846 388.947,271.298 389.454,278.750 389.961,256.394 390.469,275.024 390.976,282.476 391.485,256.394 391.992,252.668 392.500,289.928 393.007,267.572 393.514,260.120 394.023,267.572 394.529,271.298 395.038,260.120 395.545,289.928 396.053,263.846 396.560,267.572 397.067,241.490 397.576,278.750 398.082,263.846 398.591,289.928 399.098,278.750 399.605,260.120 400.113,275.024 400.620,267.572 401.129,267.572 401.636,263.846 402.142,286.202 402.651,286.202 403.158,278.750 403.667,289.928 404.173,282.476 404.680,293.654 405.189,278.750 405.695,282.476 406.202,275.024 406.711,278.750 407.218,275.024 407.726,286.202 408.233,275.024 408.740,260.120 409.249,267.572 409.755,286.202 410.262,252.668 410.771,263.846 411.278,271.298 411.784,271.298 412.293,252.668 412.800,271.298 413.309,260.120 413.815,289.928 414.322,282.476 414.831,286.202 415.338,260.120 415.844,293.654 416.353,275.024 416.860,263.846 417.366,278.750 417.875,275.024 418.382,256.394 418.889,252.668 419.395,252.668 419.904,267.572 420.411,260.120 420.918,263.846 421.426,263.846 421.933,275.024 422.440,282.476 422.949,282.476 423.455,289.928 423.962,278.750 424.471,293.654 424.978,275.024 425.484,267.572 425.991,271.298 426.500,293.654 427.007,267.572 427.513,275.024 428.022,286.202 428.529,282.476 429.036,275.024 429.542,297.380 430.051,282.476 430.558,278.750 431.064,282.476 431.573,282.476 432.080,282.476 432.587,297.380 433.093,271.298 433.602,267.572 434.109,301.106 434.616,267.572 435.122,286.202 435.631,282.476 436.138,271.298 436.645,297.380 437.151,286.202 437.660,260.120 438.167,282.476 438.674,289.928 439.180,271.298 439.689,286.202 440.196,301.106 440.703,289.928 441.209,271.298 441.718,312.284 442.225,304.832 442.732,293.654 443.238,301.106 443.745,289.928 444.254,278.750 444.761,278.750 445.267,260.120 445.774,275.024 446.281,275.024 446.790,282.476 447.296,275.024 447.803,282.476 448.310,282.476 448.819,282.476 449.325,286.202 449.832,297.380 450.339,282.476 450.846,304.832 451.352,301.106 451.861,301.106 452.368,301.106 452.875,286.202 453.381,271.298 453.888,278.750 454.397,267.572 454.903,271.298 455.410,267.572 455.917,293.654 456.424,282.476 456.931,289.928 457.439,293.654 457.946,304.832 458.453,297.380 458.959,286.202 459.466,278.750 459.973,278.750 460.482,293.654 460.988,304.832 461.495,278.750 462.002,275.024 462.509,289.928 463.015,286.202 463.522,271.298 464.029,301.106 464.538,278.750 465.044,289.928 465.551,308.558 466.058,282.476 466.565,293.654 467.071,278.750 467.578,278.750 468.087,293.654 468.594,271.298 469.100,275.024 469.607,301.106 470.114,301.106 470.621,301.106 471.127,293.654 471.634,297.380 472.141,289.928 472.648,301.106 473.156,293.654 473.663,286.202 474.170,308.558 474.677,282.476 "
       style="fill:none;stroke:#000000;stroke-width:2pt;stroke-dasharray:none"
       transform="matrix(0.54685334,0,0,0.54685334,1.7857127,7.0343756)" />
    <text
       id="text3157"
       font-size="19pt"
       y="210.40826"
       x="154.76793"
       style="font-style:normal;font-variant:normal;font-weight:normal;font-stretch:normal;font-size:9px;line-height:125%;font-family:Sans;-inkscape-font-specification:Sans;text-align:center;writing-mode:lr-tb;text-anchor:middle;fill:#000000"
       sodipodi:linespacing="125%">Wavelength (nm)</text>
    <text
       id="text3164"
       font-size="19pt"
       y="19.436108"
       x="-105.22408"
       style="font-style:normal;font-variant:normal;font-weight:normal;font-stretch:normal;font-size:9px;line-height:125%;font-family:Sans;-inkscape-font-specification:Sans;text-align:center;writing-mode:lr-tb;text-anchor:middle;fill:#000000"
       transform="matrix(0,-1,1,0,0,0)"
       sodipodi:linespacing="125%">Intensity (counts/5s)</text>
    <polyline
       style="fill:none;stroke:#000000;stroke-width:1.94383407;stroke-miterlimit:4;stroke-dasharray:none"
       points="182.766,327.188 182.766,323.289 "
       id="polyline3169"
       transform="matrix(0.54685334,0,0,0.54685334,1.7857127,7.0343756)" />
    <polyline
       style="fill:none;stroke:#000000;stroke-width:1.94383407;stroke-miterlimit:4;stroke-dasharray:none"
       points="280.219,327.188 280.219,323.289 "
       id="polyline3171"
       transform="matrix(0.54685334,0,0,0.54685334,1.7857127,7.0343756)" />
    <polyline
       style="fill:none;stroke:#000000;stroke-width:1.94383407;stroke-miterlimit:4;stroke-dasharray:none"
       points="377.672,327.188 377.672,323.289 "
       id="polyline3173"
       transform="matrix(0.54685334,0,0,0.54685334,1.7857127,7.0343756)" />
    <polyline
       style="fill:none;stroke:#000000;stroke-width:1.94383407;stroke-miterlimit:4;stroke-dasharray:none"
       points="85.313,327.188 475.125,327.188 "
       id="polyline3175"
       transform="matrix(0.54685334,0,0,0.54685334,1.7857127,7.0343756)" />
    <polyline
       style="fill:none;stroke:#000000;stroke-width:1.94383407;stroke-miterlimit:4;stroke-dasharray:none"
       points="182.766,29.109 182.766,33.007 "
       id="polyline3177"
       transform="matrix(0.54685334,0,0,0.54685334,1.7857127,7.0343756)" />
    <polyline
       style="fill:none;stroke:#000000;stroke-width:1.94383407;stroke-miterlimit:4;stroke-dasharray:none"
       points="280.219,29.109 280.219,33.007 "
       id="polyline3179"
       transform="matrix(0.54685334,0,0,0.54685334,1.7857127,7.0343756)" />
    <polyline
       style="fill:none;stroke:#000000;stroke-width:1.94383407;stroke-miterlimit:4;stroke-dasharray:none"
       points="377.672,29.109 377.672,33.007 "
       id="polyline3181"
       transform="matrix(0.54685334,0,0,0.54685334,1.7857127,7.0343756)" />
    <polyline
       style="fill:none;stroke:#000000;stroke-width:1.94383407;stroke-miterlimit:4;stroke-dasharray:none"
       points="85.313,29.109 475.125,29.109 "
       id="polyline3183"
       transform="matrix(0.54685334,0,0,0.54685334,1.7857127,7.0343756)" />
    <text
       style="font-style:normal;font-variant:normal;font-weight:normal;font-stretch:normal;font-size:9px;line-height:125%;font-family:Sans;-inkscape-font-specification:Sans;text-align:end;writing-mode:lr-tb;text-anchor:end;fill:#000000"
       x="56.002399"
       y="195.88759"
       font-size="19pt"
       id="text3189"
       sodipodi:linespacing="125%">600</text>
    <text
       style="font-style:normal;font-variant:normal;font-weight:normal;font-stretch:normal;font-size:9px;line-height:125%;font-family:Sans;-inkscape-font-specification:Sans;text-align:end;writing-mode:lr-tb;text-anchor:end;fill:#000000"
       x="109.2949"
       y="195.88759"
       font-size="19pt"
       id="text3195"
       sodipodi:linespacing="125%">650</text>
    <text
       style="font-style:normal;font-variant:normal;font-weight:normal;font-stretch:normal;font-size:9px;line-height:125%;font-family:Sans;-inkscape-font-specification:Sans;text-align:end;writing-mode:lr-tb;text-anchor:end;fill:#000000"
       x="162.54346"
       y="195.88759"
       font-size="19pt"
       id="text3201"
       sodipodi:linespacing="125%">700</text>
    <text
       style="font-style:normal;font-variant:normal;font-weight:normal;font-stretch:normal;font-size:9px;line-height:125%;font-family:Sans;-inkscape-font-specification:Sans;text-align:end;writing-mode:lr-tb;text-anchor:end;fill:#000000"
       x="215.83595"
       y="195.88759"
       font-size="19pt"
       id="text3207"
       sodipodi:linespacing="125%">750</text>
    <text
       style="font-style:normal;font-variant:normal;font-weight:normal;font-stretch:normal;font-size:9px;line-height:125%;font-family:Sans;-inkscape-font-specification:Sans;text-align:end;writing-mode:lr-tb;text-anchor:end;fill:#000000"
       x="269.15921"
       y="195.88759"
       font-size="19pt"
       id="text3213"
       sodipodi:linespacing="125%">800</text>
    <polyline
       style="fill:none;stroke:#000000;stroke-width:1.94383407;stroke-miterlimit:4;stroke-dasharray:none"
       points="85.313,252.668 89.211,252.668 "
       id="polyline3215"
       transform="matrix(0.54685334,0,0,0.54685334,1.7857127,7.0343756)" />
    <polyline
       style="fill:none;stroke:#000000;stroke-width:1.94383407;stroke-miterlimit:4;stroke-dasharray:none"
       points="85.313,178.148 89.211,178.148 "
       id="polyline3217"
       transform="matrix(0.54685334,0,0,0.54685334,1.7857127,7.0343756)" />
    <polyline
       style="fill:none;stroke:#000000;stroke-width:1.94383407;stroke-miterlimit:4;stroke-dasharray:none"
       points="85.313,103.629 89.211,103.629 "
       id="polyline3219"
       transform="matrix(0.54685334,0,0,0.54685334,1.7857127,7.0343756)" />
    <polyline
       style="fill:none;stroke:#000000;stroke-width:1.94383407;stroke-miterlimit:4;stroke-dasharray:none"
       points="85.313,327.188 85.313,29.109 "
       id="polyline3221"
       transform="matrix(0.54685334,0,0,0.54685334,1.7857127,7.0343756)" />
    <polyline
       style="fill:none;stroke:#000000;stroke-width:1.94383407;stroke-miterlimit:4;stroke-dasharray:none"
       points="475.125,252.668 471.227,252.668 "
       id="polyline3223"
       transform="matrix(0.54685334,0,0,0.54685334,1.7857127,7.0343756)" />
    <polyline
       style="fill:none;stroke:#000000;stroke-width:1.94383407;stroke-miterlimit:4;stroke-dasharray:none"
       points="475.125,178.148 471.227,178.148 "
       id="polyline3225"
       transform="matrix(0.54685334,0,0,0.54685334,1.7857127,7.0343756)" />
    <polyline
       style="fill:none;stroke:#000000;stroke-width:1.94383407;stroke-miterlimit:4;stroke-dasharray:none"
       points="475.125,103.629 471.227,103.629 "
       id="polyline3227"
       transform="matrix(0.54685334,0,0,0.54685334,1.7857127,7.0343756)" />
    <polyline
       style="fill:none;stroke:#000000;stroke-width:1.94383407;stroke-miterlimit:4;stroke-dasharray:none"
       points="475.125,327.188 475.125,29.109 "
       id="polyline3229"
       transform="matrix(0.54685334,0,0,0.54685334,1.7857127,7.0343756)" />
    <text
       style="font-style:normal;font-variant:normal;font-weight:normal;font-stretch:normal;font-size:9px;line-height:125%;font-family:Sans;-inkscape-font-specification:Sans;text-align:end;writing-mode:lr-tb;text-anchor:end;fill:#000000"
       x="44.175594"
       y="189.13766"
       font-size="19pt"
       id="text3235"
       sodipodi:linespacing="125%">620</text>
    <text
       style="font-style:normal;font-variant:normal;font-weight:normal;font-stretch:normal;font-size:9px;line-height:125%;font-family:Sans;-inkscape-font-specification:Sans;text-align:end;writing-mode:lr-tb;text-anchor:end;fill:#000000"
       x="44.175594"
       y="148.38615"
       font-size="19pt"
       id="text3241"
       sodipodi:linespacing="125%">640</text>
    <text
       style="font-style:normal;font-variant:normal;font-weight:normal;font-stretch:normal;font-size:9px;line-height:125%;font-family:Sans;-inkscape-font-specification:Sans;text-align:end;writing-mode:lr-tb;text-anchor:end;fill:#000000"
       x="44.175594"
       y="107.63465"
       font-size="19pt"
       id="text3247"
       sodipodi:linespacing="125%">660</text>
    <text
       style="font-style:normal;font-variant:normal;font-weight:normal;font-stretch:normal;font-size:9px;line-height:125%;font-family:Sans;-inkscape-font-specification:Sans;text-align:end;writing-mode:lr-tb;text-anchor:end;fill:#000000"
       x="44.175594"
       y="66.883682"
       font-size="19pt"
       id="text3253"
       sodipodi:linespacing="125%">680</text>
    <text
       style="font-style:normal;font-variant:normal;font-weight:normal;font-stretch:normal;font-size:9px;line-height:125%;font-family:Sans;-inkscape-font-specification:Sans;text-align:end;writing-mode:lr-tb;text-anchor:end;fill:#000000"
       x="44.175594"
       y="26.132174"
       font-size="19pt"
       id="text3259"
       sodipodi:linespacing="125%">700</text>
    <polyline
       style="fill:none;stroke:#000000;stroke-width:0.5pt;stroke-dasharray:none"
       points="85.313,327.188 85.313,324.207 "
       id="polyline3261"
       transform="matrix(0.54685334,0,0,0.54685334,1.7857127,7.0343756)" />
    <polyline
       style="fill:none;stroke:#000000;stroke-width:0.5pt;stroke-dasharray:none"
       points="85.313,327.188 85.313,327.188 "
       id="polyline3263"
       transform="matrix(0.54685334,0,0,0.54685334,1.7857127,7.0343756)" />
  </g>
</svg>
