<?xml version="1.0" encoding="UTF-8" standalone="no"?>
<!-- Created with Inkscape (http://www.inkscape.org/) -->

<svg
   xmlns:dc="http://purl.org/dc/elements/1.1/"
   xmlns:cc="http://creativecommons.org/ns#"
   xmlns:rdf="http://www.w3.org/1999/02/22-rdf-syntax-ns#"
   xmlns:svg="http://www.w3.org/2000/svg"
   xmlns="http://www.w3.org/2000/svg"
   xmlns:sodipodi="http://sodipodi.sourceforge.net/DTD/sodipodi-0.dtd"
   xmlns:inkscape="http://www.inkscape.org/namespaces/inkscape"
   width="265.28094"
   height="269.71417"
   id="svg2"
   version="1.1"
   inkscape:version="0.91 r13725"
   sodipodi:docname="01_bulk.svg"
   inkscape:export-filename="C:\Users\aquiles\Documents\KCN\kcn-paper\Figures\04_Supporting\01_Bulk\01_bulk.png"
   inkscape:export-xdpi="600"
   inkscape:export-ydpi="600">
  <defs
     id="defs4">
    <marker
       inkscape:stockid="Arrow1Mend"
       orient="auto"
       refY="0"
       refX="0"
       id="marker5936"
       style="overflow:visible"
       inkscape:isstock="true">
      <path
         id="path5938"
         d="M 0,0 5,-5 -12.5,0 5,5 0,0 Z"
         style="fill:#000000;fill-opacity:1;fill-rule:evenodd;stroke:#000000;stroke-width:1pt;stroke-opacity:1"
         transform="matrix(-0.4,0,0,-0.4,-4,0)"
         inkscape:connector-curvature="0" />
    </marker>
    <marker
       inkscape:stockid="Arrow1Mend"
       orient="auto"
       refY="0"
       refX="0"
       id="marker5872"
       style="overflow:visible"
       inkscape:isstock="true">
      <path
         id="path5874"
         d="M 0,0 5,-5 -12.5,0 5,5 0,0 Z"
         style="fill:#000000;fill-opacity:1;fill-rule:evenodd;stroke:#000000;stroke-width:1pt;stroke-opacity:1"
         transform="matrix(-0.4,0,0,-0.4,-4,0)"
         inkscape:connector-curvature="0" />
    </marker>
    <marker
       inkscape:stockid="Arrow1Mend"
       orient="auto"
       refY="0"
       refX="0"
       id="Arrow1Mend"
       style="overflow:visible"
       inkscape:isstock="true">
      <path
         id="path5309"
         d="M 0,0 5,-5 -12.5,0 5,5 0,0 Z"
         style="fill:#000000;fill-opacity:1;fill-rule:evenodd;stroke:#000000;stroke-width:1pt;stroke-opacity:1"
         transform="matrix(-0.4,0,0,-0.4,-4,0)"
         inkscape:connector-curvature="0" />
    </marker>
    <marker
       inkscape:stockid="Arrow1Lend"
       orient="auto"
       refY="0"
       refX="0"
       id="Arrow1Lend"
       style="overflow:visible"
       inkscape:isstock="true">
      <path
         id="path5303"
         d="M 0,0 5,-5 -12.5,0 5,5 0,0 Z"
         style="fill:#000000;fill-opacity:1;fill-rule:evenodd;stroke:#000000;stroke-width:1pt;stroke-opacity:1"
         transform="matrix(-0.8,0,0,-0.8,-10,0)"
         inkscape:connector-curvature="0" />
    </marker>
    <clipPath
       id="ID000010">
      <rect
         id="rect3483"
         height="843.75"
         width="843.75"
         y="0"
         x="0" />
    </clipPath>
    <clipPath
       id="ID000001">
      <rect
         id="rect3248"
         height="687.65601"
         width="653.90601"
         y="63.280998"
         x="109.688" />
    </clipPath>
    <clipPath
       id="ID000001-4">
      <rect
         id="rect5711"
         height="303.28101"
         width="389.81299"
         y="29.531"
         x="85.313004" />
    </clipPath>
  </defs>
  <sodipodi:namedview
     id="base"
     pagecolor="#ffffff"
     bordercolor="#666666"
     borderopacity="1.0"
     inkscape:pageopacity="1"
     inkscape:pageshadow="2"
     inkscape:zoom="0.9050967"
     inkscape:cx="289.0612"
     inkscape:cy="37.396308"
     inkscape:document-units="mm"
     inkscape:current-layer="layer1"
     showgrid="false"
     units="mm"
     inkscape:window-width="1920"
     inkscape:window-height="1017"
     inkscape:window-x="-8"
     inkscape:window-y="-8"
     inkscape:window-maximized="1"
     fit-margin-top="0"
     fit-margin-left="0"
     fit-margin-right="0"
     fit-margin-bottom="0" />
  <metadata
     id="metadata7">
    <rdf:RDF>
      <cc:Work
         rdf:about="">
        <dc:format>image/svg+xml</dc:format>
        <dc:type
           rdf:resource="http://purl.org/dc/dcmitype/StillImage" />
        <dc:title></dc:title>
      </cc:Work>
    </rdf:RDF>
  </metadata>
  <g
     inkscape:label="Main"
     inkscape:groupmode="layer"
     id="layer1"
     transform="translate(-19.507034,-24.946976)">
    <polygon
       id="polygon3250"
       points="763.594,750.938 763.594,63.281 109.688,63.281 109.688,750.938 "
       style="fill:#ffffff;fill-opacity:1;stroke:none"
       transform="matrix(0.35514565,0,0,0.35514565,5.6072601,6.0417144)" />
    <polygon
       id="polygon3252"
       points="763.594,63.281 763.594,63.281 109.688,63.281 109.688,63.281 "
       style="fill:#ffffff;fill-opacity:1;stroke:none"
       transform="matrix(0.35514565,0,0,0.35514565,5.6072601,6.0417144)" />
    <polygon
       id="polygon3254"
       points="109.688,750.937 109.688,63.281 109.688,63.281 109.688,750.938 "
       style="fill:#ffffff;fill-opacity:1;stroke:none"
       transform="matrix(0.35514565,0,0,0.35514565,5.6072601,6.0417144)" />
    <g
       id="ID000002"
       clip-path="url(#ID000001)"
       transform="matrix(0.35514565,0,0,0.35514565,5.6072601,6.0417144)">
      <polyline
         style="fill:none;stroke:#e50000;stroke-width:2pt;stroke-dasharray:none"
         points="763.506,717.079 761.689,708.471 759.872,735.370 758.054,714.483 756.235,731.520 754.156,709.653 752.335,730.495 750.514,688.854 748.692,716.208 746.870,710.412 744.786,722.843 742.962,731.797 741.138,723.077 739.313,712.277 737.487,710.497 735.660,726.322 733.571,697.960 731.743,701.913 729.914,717.330 728.085,704.218 726.254,693.469 724.424,693.795 722.592,726.202 720.498,698.160 718.665,702.684 716.831,706.153 714.996,702.284 713.161,701.062 711.325,711.277 709.489,695.725 707.652,683.465 705.551,697.002 703.713,691.355 701.873,690.047 700.033,703.416 698.193,692.247 696.351,700.248 694.509,693.748 692.667,696.156 690.823,702.865 688.979,696.949 686.871,684.382 685.025,690.214 683.179,697.309 681.332,685.556 679.485,691.181 677.637,685.903 675.788,694.960 673.938,688.503 672.088,684.680 670.238,690.138 668.386,684.014 666.534,685.162 664.681,679.482 662.828,663.643 660.709,665.472 658.854,671.839 656.998,663.857 655.142,662.927 653.285,665.939 651.428,655.964 649.570,656.988 647.711,660.765 645.852,661.366 643.991,660.279 642.131,645.698 640.269,646.901 638.407,644.916 636.545,643.124 634.681,641.470 632.817,644.958 630.953,634.840 629.087,631.996 627.222,627.604 625.355,633.390 623.488,622.764 621.620,627.265 619.752,624.604 617.882,613.662 616.013,607.988 614.142,614.970 612.271,607.685 610.400,606.240 608.527,596.833 606.655,597.808 604.781,592.771 602.907,594.409 601.032,590.332 599.157,586.368 597.281,581.281 595.404,574.387 593.527,578.375 591.649,574.201 589.770,568.198 587.891,556.742 586.011,556.640 584.131,558.116 582.250,543.762 580.368,540.079 578.755,537.572 576.872,536.081 574.988,530.362 573.104,527.670 571.220,522.108 569.334,522.821 567.448,508.307 565.562,506.110 563.675,509.066 561.787,501.416 559.899,497.817 558.010,490.512 556.120,491.657 554.230,473.661 552.609,475.294 550.718,456.239 548.826,454.344 546.934,458.342 545.041,445.828 543.147,443.005 541.253,442.189 539.358,437.249 537.462,428.963 535.566,418.241 533.669,421.537 532.043,422.930 530.145,406.418 528.247,411.042 526.348,396.087 524.448,392.589 522.548,384.555 520.647,373.533 518.746,371.791 516.844,358.922 515.213,356.585 513.310,350.949 511.406,341.650 509.502,343.855 507.597,334.851 505.692,324.919 503.786,320.828 502.152,321.262 500.245,313.249 498.337,300.357 496.429,298.763 494.520,286.286 492.611,292.668 490.701,288.686 489.063,284.434 487.152,273.338 485.240,268.441 483.328,261.231 481.415,257.138 479.502,248.480 477.862,247.870 475.947,241.189 474.032,240.742 472.117,230.970 470.201,235.882 468.284,231.965 466.641,216.091 464.723,219.245 462.805,211.870 460.886,212.317 458.966,206.900 457.321,206.116 455.400,196.329 453.479,202.474 451.558,194.800 449.635,198.850 447.987,195.875 446.064,189.992 444.141,190.717 442.216,193.959 440.291,189.486 438.641,191.032 436.715,185.452 434.789,187.695 432.862,195.636 430.934,191.057 429.282,193.357 427.353,202.048 425.424,199.563 423.494,197.317 421.564,210.405 419.909,207.919 417.978,207.555 416.047,211.018 414.114,213.490 412.458,221.057 410.524,225.054 408.590,233.182 406.656,233.838 404.998,238.977 403.062,245.680 401.126,247.627 399.190,256.120 397.530,255.338 395.592,267.983 393.654,272.998 391.716,278.808 390.054,282.993 388.115,289.620 386.175,297.757 384.234,303.394 382.570,310.620 380.629,317.759 378.687,322.289 376.744,328.116 375.079,339.677 373.135,343.832 371.191,348.632 369.247,359.204 367.580,364.350 365.634,369.684 363.688,373.200 362.020,386.408 360.073,388.113 358.125,392.058 356.177,399.452 354.507,406.107 352.558,410.255 350.608,416.037 348.937,415.324 346.987,424.781 345.036,433.217 343.363,436.480 341.411,434.667 339.459,443.678 337.506,446.575 335.831,453.016 333.878,455.840 331.923,456.551 330.248,460.784 328.292,464.027 326.337,462.558 324.660,469.012 322.703,475.104 320.746,470.490 319.068,471.385 317.110,475.836 315.151,478.459 313.472,479.754 311.513,476.035 309.553,478.178 307.592,479.367 305.911,477.536 303.950,474.605 301.988,480.524 300.306,477.920 298.343,477.191 296.380,477.372 294.697,474.638 292.732,472.617 291.048,471.013 289.083,471.387 287.118,467.517 285.432,466.263 283.466,463.845 281.499,459.921 279.813,461.431 277.845,456.435 275.877,449.847 274.189,451.321 272.220,447.475 270.250,442.561 268.561,439.508 266.591,439.693 264.620,436.849 262.930,432.037 260.958,427.377 259.268,426.461 257.295,422.562 255.322,422.457 253.630,418.028 251.656,413.401 249.681,413.166 247.988,410.057 246.013,407.693 244.319,408.119 242.343,405.860 240.366,405.335 238.672,404.129 236.694,404.835 234.999,407.109 233.020,408.067 231.041,409.535 229.345,408.631 227.365,410.394 225.385,412.976 223.687,412.779 221.706,417.081 220.008,420.549 218.026,424.206 216.044,431.614 214.344,435.541 212.361,439.168 210.661,441.166 208.677,446.205 206.976,449.600 204.991,455.095 203.006,461.214 201.304,459.498 199.318,467.462 197.615,470.877 195.628,476.629 193.641,480.647 191.937,479.267 189.949,485.789 188.245,489.409 186.256,492.227 184.551,498.470 182.561,496.507 180.571,499.055 178.865,501.660 176.874,502.967 175.167,505.297 173.175,508.334 171.468,508.699 169.475,510.205 167.482,513.029 165.773,514.859 163.780,514.492 162.070,515.453 160.076,517.823 158.366,515.369 156.371,516.185 154.660,518.241 152.664,519.198 150.667,522.353 148.956,520.065 146.959,521.642 145.246,521.665 143.248,519.460 141.535,520.424 139.536,521.020 137.823,521.687 135.823,521.559 134.109,522.405 132.109,523.097 130.108,522.826 128.393,521.341 126.391,521.366 124.675,523.164 122.673,520.086 120.956,521.114 118.953,520.325 117.236,519.880 115.232,520.154 113.515,520.104 111.510,520.314 109.792,520.025 107.787,519.054 106.067,518.033 104.061,517.067 102.342,517.597 100.335,517.691 98.615,516.667 96.607,517.171 94.600,517.341 92.878,518.301 90.870,515.822 89.148,515.519 87.138,512.930 85.416,513.599 83.406,513.392 81.683,514.219 79.672,513.197 77.948,510.798 75.937,511.742 74.213,512.088 72.201,510.698 70.476,511.693 68.463,511.433 66.737,509.416 64.724,510.651 62.998,509.296 60.983,508.606 59.257,508.007 57.242,507.265 55.514,507.761 53.499,506.469 51.771,505.486 50.043,505.830 48.026,502.954 46.297,504.456 44.280,502.140 42.550,502.938 40.533,504.190 38.803,502.435 36.784,500.880 35.053,500.938 33.034,500.611 31.303,498.319 29.283,497.168 27.551,498.742 25.531,498.404 23.798,497.175 21.777,496.378 20.044,498.026 18.022,496.367 16.289,493.646 14.266,493.740 12.532,495.479 10.798,493.655 8.775,492.782 7.040,492.192 5.016,492.327 3.280,491.432 1.255,489.996 -0.480,489.087 -2.506,487.989 -4.242,487.352 -6.269,488.470 -8.006,488.250 -9.743,488.765 -11.770,486.469 -13.508,487.411 -15.535,485.036 -17.274,486.129 -19.302,483.750 -21.041,482.735 -23.070,482.230 -24.809,482.085 -26.839,482.995 -28.579,480.657 -30.319,481.089 -32.349,481.459 -34.090,480.189 -36.121,477.970 -37.862,477.421 -39.894,476.399 -41.636,475.499 -43.377,475.944 -45.410,472.843 -47.153,475.165 -49.186,473.394 -50.929,471.912 -52.962,471.104 -54.706,470.610 -56.450,469.957 -58.484,471.672 -60.229,470.452 -62.264,468.147 -64.009,466.859 -66.044,465.769 -67.790,464.219 -69.535,462.365 -71.572,464.313 -73.318,463.269 -75.355,463.715 -77.101,460.424 -79.139,458.875 -80.886,458.784 -82.633,456.145 -84.672,454.002 -86.420,453.316 -88.459,451.426 -90.207,449.663 -91.955,448.338 -93.995,445.607 -95.744,444.730 -97.785,440.305 -99.534,435.549 -101.575,434.870 -103.325,430.370 -105.075,425.309 -107.117,420.570 -108.868,418.047 -110.910,409.449 -112.661,404.500 -114.412,397.596 -116.455,391.933 -118.207,383.043 -120.251,374.775 -122.003,367.744 -123.755,362.450 -125.800,350.822 -127.553,341.126 -129.598,331.330 -131.351,321.672 -133.104,312.965 -135.150,300.137 -136.904,289.323 -138.658,279.090 -140.705,267.394 -142.459,258.080 -144.507,246.131 -146.262,233.590 -148.017,222.514 -150.065,212.645 -151.820,204.565 -153.869,190.477 -155.625,180.561 -157.381,171.596 -159.430,162.692 -161.187,153.314 -162.944,145.385 -164.994,136.675 -166.751,127.167 -168.801,121.559 -170.559,115.184 -172.317,110.299 -174.368,105.377 -176.126,102.042 -177.885,99.792 -179.937,95.761 -181.696,92.772 -183.748,92.955 -185.507,92.913 -187.267,93.374 -189.320,94.364 -191.080,95.674 -192.840,99.085 -194.894,101.574 -196.654,102.792 -198.708,106.736 -200.469,112.176 -202.230,116.143 -204.285,123.042 -206.047,127.152 -207.809,131.316 -209.864,140.491 -211.626,145.304 -213.388,151.090 -215.445,158.978 -217.207,161.433 -219.264,169.913 -221.027,175.968 -222.790,181.725 -224.848,185.739 -226.611,190.825 -228.375,197.152 -230.433,201.815 -232.197,205.092 -233.961,208.924 -236.020,211.718 -237.785,211.001 -239.550,213.016 -241.609,209.494 -243.374,207.783 -245.434,204.595 -247.199,200.066 -248.965,194.968 -251.025,180.828 -252.791,170.046 -254.558,153.237 -256.619,128.950 -258.385,106.905 -260.152,81.179 -262.214,45.496 -263.981,10.046 -265.738,-35.695 -267.787,-81.685 -269.544,-123.292 -271.302,-150.476 -273.352,-205.416 -275.110,-249.274 -277.161,-288.462 -278.919,-310.350 -280.677,-328.962 -282.728,-349.646 -284.487,-354.933 -286.538,-350.762 -288.297,-355.997 -290.056,-358.702 -292.108,-363.319 -293.868,-364.460 -295.627,-361.154 -297.680,-366.103 -299.440,-360.046 -301.200,-348.009 -303.253,-352.629 -305.013,-368.378 -307.067,-415.107 -308.828,-473.274 -310.588,-592.400 -312.643,-813.995 -314.404,-1056.303 -316.165,-1360.049 -318.220,-1821.602 -319.981,-2375.830 -322.036,-2809.965 -323.798,-2411.948 -325.560,-2929.665 -327.616,-2157.530 -329.378,-2518.486 -331.140,-1599.791 -333.197,-1959.927 -334.959,-1657.944 -336.722,-1458.103 -338.779,-923.377 -340.542,0.514 -342.305,-124.720 -344.362,-491.156 -346.126,659.841 -348.183,-16314.892 -349.947,447.900 -351.711,-16314.892 -353.769,939.693 -355.533,143.352 -357.298,-16314.892 "
         id="polyline3259" />
      <g
         id="g3261" />
    </g>
    <g
       id="ID000003"
       clip-path="url(#ID000001)"
       transform="matrix(0.35514565,0,0,0.35514565,5.6072601,6.0417144)">
      <polyline
         style="fill:none;stroke:#007f00;stroke-width:2pt;stroke-dasharray:none"
         points="763.506,742.712 761.689,720.313 759.872,720.665 758.054,709.451 756.235,734.792 754.156,716.017 752.335,736.758 750.514,699.254 748.692,722.085 746.870,719.228 744.786,736.041 742.962,720.439 741.138,725.919 739.313,734.029 737.487,712.503 735.660,735.028 733.571,704.123 731.743,709.877 729.914,748.039 728.085,718.598 726.254,697.579 724.424,713.446 722.592,733.554 720.498,715.853 718.665,720.944 716.831,690.398 714.996,722.562 713.161,724.849 711.325,709.186 709.489,711.459 707.652,717.017 705.551,713.100 703.713,701.889 701.873,710.027 700.033,724.346 698.193,705.184 696.351,714.570 694.509,710.151 692.667,713.950 690.823,715.134 688.979,720.759 686.871,704.409 685.025,707.170 683.179,723.790 681.332,712.678 679.485,710.401 677.637,711.513 675.788,703.425 673.938,703.481 672.088,702.690 670.238,716.053 668.386,710.606 666.534,702.662 664.681,705.967 662.828,691.902 660.709,710.927 658.854,696.891 656.998,697.617 655.142,686.665 653.285,702.457 651.428,690.919 649.570,680.679 647.711,708.444 645.852,691.212 643.991,691.976 642.131,683.957 640.269,690.356 638.407,679.383 636.545,690.944 634.681,684.991 632.817,684.286 630.953,675.228 629.087,686.416 627.222,670.142 625.355,688.533 623.488,674.788 621.620,676.786 619.752,676.910 617.882,666.051 616.013,671.166 614.142,668.157 612.271,663.171 610.400,662.660 608.527,659.431 606.655,665.840 604.781,664.696 602.907,665.073 601.032,664.337 599.157,654.097 597.281,655.417 595.404,646.606 593.527,651.173 591.649,649.698 589.770,645.315 587.891,637.904 586.011,638.804 584.131,638.985 582.250,622.558 580.368,630.877 578.755,627.874 576.872,620.541 574.988,618.709 573.104,617.005 571.220,615.513 569.334,610.156 567.448,606.301 565.562,611.171 563.675,609.944 561.787,594.791 559.899,592.239 558.010,598.191 556.120,595.104 554.230,582.180 552.609,582.169 550.718,573.605 548.826,566.330 546.934,566.595 545.041,552.871 543.147,561.415 541.253,552.276 539.358,554.121 537.462,544.170 535.566,539.857 533.669,539.039 532.043,546.422 530.145,529.526 528.247,524.669 526.348,522.668 524.448,516.617 522.548,516.165 520.647,508.769 518.746,497.462 516.844,488.883 515.213,483.955 513.310,492.870 511.406,473.963 509.502,475.322 507.597,470.505 505.692,465.353 503.786,452.371 502.152,457.157 500.245,447.224 498.337,445.332 496.429,436.561 494.520,426.288 492.611,420.489 490.701,426.358 489.063,413.755 487.152,404.117 485.240,399.141 483.328,396.173 481.415,388.090 479.502,390.486 477.862,375.353 475.947,372.090 474.032,370.584 472.117,362.205 470.201,351.750 468.284,357.915 466.641,348.328 464.723,335.552 462.805,337.573 460.886,325.429 458.966,324.913 457.321,320.153 455.400,307.796 453.479,301.710 451.558,308.381 449.635,298.270 447.987,297.310 446.064,295.639 444.141,274.136 442.216,284.967 440.291,275.547 438.641,284.735 436.715,268.646 434.789,265.709 432.862,259.169 430.934,269.414 429.282,259.365 427.353,250.597 425.424,252.787 423.494,243.001 421.564,247.295 419.909,249.082 417.978,243.375 416.047,243.398 414.114,242.704 412.458,252.285 410.524,242.517 408.590,237.736 406.656,246.776 404.998,235.414 403.062,251.468 401.126,241.604 399.190,251.607 397.530,245.325 395.592,252.816 393.654,262.311 391.716,255.516 390.054,260.329 388.115,265.297 386.175,270.498 384.234,270.673 382.570,274.882 380.629,282.053 378.687,282.001 376.744,286.870 375.079,292.495 373.135,296.733 371.191,305.821 369.247,308.858 367.580,313.604 365.634,316.317 363.688,326.903 362.020,331.646 360.073,332.568 358.125,338.674 356.177,347.774 354.507,346.846 352.558,354.774 350.608,363.432 348.937,368.945 346.987,374.038 345.036,381.546 343.363,389.240 341.411,390.233 339.459,398.747 337.506,401.877 335.831,407.609 333.878,413.768 331.923,417.285 330.248,416.608 328.292,425.827 326.337,431.857 324.660,432.581 322.703,440.068 320.746,443.005 319.068,442.567 317.110,449.517 315.151,452.226 313.472,461.319 311.513,455.536 309.553,458.430 307.592,462.897 305.911,465.290 303.950,462.905 301.988,468.586 300.306,468.587 298.343,470.014 296.380,476.703 294.697,471.752 292.732,470.523 291.048,471.692 289.083,473.811 287.118,468.997 285.432,470.610 283.466,470.833 281.499,466.836 279.813,468.749 277.845,466.257 275.877,463.735 274.189,462.629 272.220,459.204 270.250,454.774 268.561,453.680 266.591,451.104 264.620,447.646 262.930,444.417 260.958,439.954 259.268,439.988 257.295,435.781 255.322,431.667 253.630,428.298 251.656,424.698 249.681,420.289 247.988,419.805 246.013,418.242 244.319,415.718 242.343,408.993 240.366,404.605 238.672,404.862 236.694,407.760 234.999,407.109 233.020,407.421 231.041,407.556 229.345,406.735 227.365,411.011 225.385,405.209 223.687,409.985 221.706,413.552 220.008,419.542 218.026,421.169 216.044,425.446 214.344,431.554 212.361,433.245 210.661,434.114 208.677,444.798 206.976,446.020 204.991,449.848 203.006,457.615 201.304,463.041 199.318,468.172 197.615,470.577 195.628,471.342 193.641,478.680 191.937,479.666 189.949,485.519 188.245,488.134 186.256,492.321 184.551,497.069 182.561,496.797 180.571,499.580 178.865,500.801 176.874,504.546 175.167,507.882 173.175,507.820 171.468,509.041 169.475,511.969 167.482,513.141 165.773,515.661 163.780,512.259 162.070,517.033 160.076,518.171 158.366,518.806 156.371,518.870 154.660,520.262 152.664,519.034 150.667,522.160 148.956,519.471 146.959,523.114 145.246,523.947 143.248,520.020 141.535,523.332 139.536,522.988 137.823,521.218 135.823,522.185 134.109,522.379 132.109,524.447 130.108,524.515 128.393,523.527 126.391,521.649 124.675,524.241 122.673,521.948 120.956,520.543 118.953,522.892 117.236,520.009 115.232,520.566 113.515,519.283 111.510,520.078 109.792,521.019 107.787,518.697 106.067,518.088 104.061,518.605 102.342,518.553 100.335,518.003 98.615,518.055 96.607,516.814 94.600,516.630 92.878,518.848 90.870,516.577 89.148,516.937 87.138,515.035 85.416,513.119 83.406,515.499 81.683,515.960 79.672,513.652 77.948,512.514 75.937,513.057 74.213,510.838 72.201,512.817 70.476,512.814 68.463,512.147 66.737,508.366 64.724,511.500 62.998,510.748 60.983,509.095 59.257,505.792 57.242,508.027 55.514,507.582 53.499,506.224 51.771,504.459 50.043,504.861 48.026,503.750 46.297,502.566 44.280,502.156 42.550,504.073 40.533,504.677 38.803,502.074 36.784,499.472 35.053,500.550 33.034,500.996 31.303,499.214 29.283,497.235 27.551,499.111 25.531,497.475 23.798,495.560 21.777,495.418 20.044,497.014 18.022,497.002 16.289,494.477 14.266,492.976 12.532,496.667 10.798,492.372 8.775,491.849 7.040,491.427 5.016,491.009 3.280,489.468 1.255,488.392 -0.480,488.339 -2.506,485.243 -4.242,486.857 -6.269,483.251 -8.006,484.271 -9.743,485.760 -11.770,484.636 -13.508,484.164 -15.535,482.979 -17.274,483.253 -19.302,481.218 -21.041,478.720 -23.070,479.524 -24.809,479.739 -26.839,479.754 -28.579,477.235 -30.319,477.299 -32.349,475.603 -34.090,475.422 -36.121,472.309 -37.862,471.166 -39.894,470.693 -41.636,468.192 -43.377,467.971 -45.410,469.303 -47.153,466.078 -49.186,465.199 -50.929,462.423 -52.962,461.697 -54.706,459.940 -56.450,459.602 -58.484,461.022 -60.229,459.317 -62.264,454.853 -64.009,451.077 -66.044,448.827 -67.790,448.978 -69.535,444.214 -71.572,442.262 -73.318,437.938 -75.355,435.067 -77.101,431.020 -79.139,423.505 -80.886,422.247 -82.633,413.742 -84.672,410.684 -86.420,407.261 -88.459,399.039 -90.207,394.485 -91.955,391.059 -93.995,385.287 -95.744,378.582 -97.785,369.785 -99.534,364.459 -101.575,357.701 -103.325,348.424 -105.075,345.893 -107.117,336.786 -108.868,328.690 -110.910,318.536 -112.661,312.657 -114.412,302.105 -116.455,291.931 -118.207,283.610 -120.251,274.577 -122.003,267.315 -123.755,260.995 -125.800,249.099 -127.553,241.205 -129.598,232.171 -131.351,222.546 -133.104,214.185 -135.150,203.736 -136.904,195.167 -138.658,185.180 -140.705,175.779 -142.459,171.479 -144.507,161.249 -146.262,152.763 -148.017,145.870 -150.065,137.387 -151.820,131.774 -153.869,121.186 -155.625,117.281 -157.381,110.681 -159.430,106.266 -161.187,101.998 -162.944,95.145 -164.994,90.068 -166.751,86.090 -168.801,83.229 -170.559,81.111 -172.317,77.950 -174.368,75.676 -176.126,76.093 -177.885,74.189 -179.937,73.569 -181.696,74.502 -183.748,75.490 -185.507,77.134 -187.267,78.387 -189.320,80.035 -191.080,83.568 -192.840,85.971 -194.894,88.251 -196.654,91.883 -198.708,96.068 -200.469,99.100 -202.230,104.236 -204.285,109.684 -206.047,113.135 -207.809,116.272 -209.864,121.856 -211.626,126.513 -213.388,129.085 -215.445,134.307 -217.207,135.846 -219.264,137.304 -221.027,140.906 -222.790,142.438 -224.848,146.189 -226.611,147.455 -228.375,147.732 -230.433,149.010 -232.197,150.268 -233.961,151.253 -236.020,152.482 -237.785,150.780 -239.550,154.104 -241.609,148.984 -243.374,146.709 -245.434,143.897 -247.199,141.933 -248.965,141.351 -251.025,135.215 -252.791,129.095 -254.558,128.144 -256.619,119.048 -258.385,113.268 -260.152,108.719 -262.214,102.338 -263.981,95.965 -265.738,91.771 -267.787,82.333 -269.544,79.245 -271.302,74.330 -273.352,61.409 -275.110,48.461 -277.161,30.654 -278.919,11.036 -280.677,-8.176 -282.728,-34.549 -284.487,-29.518 -286.538,-8.698 -288.297,-9.044 -290.056,-11.900 -292.108,-27.219 -293.868,-49.929 -295.627,-69.883 -297.680,-95.018 -299.440,-103.138 -301.200,-119.220 -303.253,-153.484 -305.013,-178.252 -307.067,-285.091 -308.828,-376.123 -310.588,-544.445 -312.643,-769.960 -314.404,-1100.708 -316.165,-1490.774 -318.220,-2037.356 -319.981,-2611.167 -322.036,-3254.551 -323.798,-3821.804 -325.560,-3052.125 -327.616,-4591.949 -329.378,-2599.894 -331.140,-2316.653 -333.197,-1335.934 -334.959,-1583.951 -336.722,-1198.570 -338.779,-1851.777 -340.542,-680.768 -342.305,-442.023 -344.362,-220.629 -346.126,683.544 -348.183,-606.510 -349.947,228.278 -351.711,-354.605 -353.769,-916.207 -355.533,-429.214 -357.298,-20549.243 "
         id="polyline3264" />
      <g
         id="g3266" />
    </g>
    <g
       id="ID000004"
       clip-path="url(#ID000001)"
       transform="matrix(0.35514565,0,0,0.35514565,5.6072601,6.0417144)">
      <polyline
         style="fill:none;stroke:#bf00bf;stroke-width:2pt;stroke-dasharray:none"
         points="763.506,736.624 761.689,740.648 759.872,718.908 758.054,723.118 756.235,741.394 754.156,722.630 752.335,724.691 750.514,702.524 748.692,731.001 746.870,714.713 744.786,741.410 742.962,748.148 741.138,722.818 739.313,748.070 737.487,733.754 735.660,733.027 733.571,713.192 731.743,717.333 729.914,716.260 728.085,710.408 726.254,699.734 724.424,719.885 722.592,733.889 720.498,735.402 718.665,720.888 716.831,726.284 714.996,739.188 713.161,742.998 711.325,729.719 709.489,727.165 707.652,704.389 705.551,726.921 703.713,708.340 701.873,719.206 700.033,720.018 698.193,719.790 696.351,724.885 694.509,732.262 692.667,715.978 690.823,714.307 688.979,734.341 686.871,709.939 685.025,717.089 683.179,738.087 681.332,715.868 679.485,720.564 677.637,712.707 675.788,732.712 673.938,723.135 672.088,730.080 670.238,726.361 668.386,718.811 666.534,722.729 664.681,716.337 662.828,703.796 660.709,722.656 658.854,709.540 656.998,704.414 655.142,709.569 653.285,716.606 651.428,709.144 649.570,704.644 647.711,706.692 645.852,708.466 643.991,716.375 642.131,704.921 640.269,703.592 638.407,700.525 636.545,701.312 634.681,702.712 632.817,698.736 630.953,705.171 629.087,701.506 627.222,699.763 625.355,708.123 623.488,694.657 621.620,696.608 619.752,699.889 617.882,695.501 616.013,695.911 614.142,696.118 612.271,690.028 610.400,689.644 608.527,684.446 606.655,688.135 604.781,688.450 602.907,683.322 601.032,688.790 599.157,687.399 597.281,683.040 595.404,667.648 593.527,681.868 591.649,680.512 589.770,677.592 587.891,665.201 586.011,670.434 584.131,677.058 582.250,667.552 580.368,670.759 578.755,663.915 576.872,660.887 574.988,656.933 573.104,660.469 571.220,654.321 569.334,658.657 567.448,652.776 565.562,656.467 563.675,658.212 561.787,644.929 559.899,645.557 558.010,640.715 556.120,643.317 554.230,637.419 552.609,629.222 550.718,624.199 548.826,625.970 546.934,622.510 545.041,616.709 543.147,610.259 541.253,606.816 539.358,611.843 537.462,610.084 535.566,601.119 533.669,608.007 532.043,597.316 530.145,601.042 528.247,597.423 526.348,594.931 524.448,595.475 522.548,587.481 520.647,580.499 518.746,574.565 516.844,560.399 515.213,558.833 513.310,560.011 511.406,552.078 509.502,551.877 507.597,533.173 505.692,540.564 503.786,537.757 502.152,536.505 500.245,540.260 498.337,530.316 496.429,529.073 494.520,516.154 492.611,512.089 490.701,511.930 489.063,507.886 487.152,491.280 485.240,492.315 483.328,487.215 481.415,487.770 479.502,476.134 477.862,480.305 475.947,470.062 474.032,468.402 472.117,464.392 470.201,455.205 468.284,449.530 466.641,447.038 464.723,440.055 462.805,433.778 460.886,426.756 458.966,432.446 457.321,429.879 455.400,414.833 453.479,406.481 451.558,416.104 449.635,406.502 447.987,392.745 446.064,388.195 444.141,389.580 442.216,381.026 440.291,374.564 438.641,375.463 436.715,366.499 434.789,364.520 432.862,365.967 430.934,358.908 429.282,354.733 427.353,347.458 425.424,340.069 423.494,341.233 421.564,339.932 419.909,339.189 417.978,330.433 416.047,328.701 414.114,323.221 412.458,323.645 410.524,323.432 408.590,324.953 406.656,318.159 404.998,313.805 403.062,316.604 401.126,309.342 399.190,315.896 397.530,311.779 395.592,314.555 393.654,302.728 391.716,305.155 390.054,319.997 388.115,311.457 386.175,316.615 384.234,311.627 382.570,312.329 380.629,316.715 378.687,306.623 376.744,308.135 375.079,321.811 373.135,321.338 371.191,320.802 369.247,324.456 367.580,328.240 365.634,326.748 363.688,324.925 362.020,334.345 360.073,337.585 358.125,340.131 356.177,342.284 354.507,342.682 352.558,347.624 350.608,353.301 348.937,356.179 346.987,360.323 345.036,366.152 343.363,369.861 341.411,368.013 339.459,378.294 337.506,380.354 335.831,384.486 333.878,388.444 331.923,392.547 330.248,395.179 328.292,398.603 326.337,402.333 324.660,405.895 322.703,412.406 320.746,415.363 319.068,413.619 317.110,420.559 315.151,425.813 313.472,423.585 311.513,431.147 309.553,434.616 307.592,437.967 305.911,436.867 303.950,435.249 301.988,447.203 300.306,445.918 298.343,444.226 296.380,447.034 294.697,450.091 292.732,448.345 291.048,451.264 289.083,450.279 287.118,451.627 285.432,453.310 283.466,453.372 281.499,449.561 279.813,451.382 277.845,449.886 275.877,448.618 274.189,446.691 272.220,445.647 270.250,443.209 268.561,440.408 266.591,440.643 264.620,437.938 262.930,433.376 260.958,431.200 259.268,427.099 257.295,425.579 255.322,422.703 253.630,419.976 251.656,414.328 249.681,414.727 247.988,411.466 246.013,410.412 244.319,411.479 242.343,405.733 240.366,404.933 238.672,404.449 236.694,404.752 234.999,407.109 233.020,411.071 231.041,406.418 229.345,409.572 227.365,416.254 225.385,416.114 223.687,416.507 221.706,422.134 220.008,422.978 218.026,429.753 216.044,432.578 214.344,438.281 212.361,445.580 210.661,449.565 208.677,453.590 206.976,452.751 204.991,463.366 203.006,469.048 201.304,471.194 199.318,476.882 197.615,479.211 195.628,485.418 193.641,490.398 191.937,490.560 189.949,495.638 188.245,498.819 186.256,502.482 184.551,508.199 182.561,506.527 180.571,511.001 178.865,511.425 176.874,514.154 175.167,516.972 173.175,520.072 171.468,521.297 169.475,521.905 167.482,521.250 165.773,524.868 163.780,525.877 162.070,526.046 160.076,528.369 158.366,526.494 156.371,529.447 154.660,528.101 152.664,529.160 150.667,532.010 148.956,529.348 146.959,529.811 145.246,532.490 143.248,531.194 141.535,532.926 139.536,533.273 137.823,532.142 135.823,531.372 134.109,532.826 132.109,533.411 130.108,532.344 128.393,532.896 126.391,533.236 124.675,535.120 122.673,532.499 120.956,532.625 118.953,532.931 117.236,532.371 115.232,531.069 113.515,530.690 111.510,534.391 109.792,530.126 107.787,530.095 106.067,529.505 104.061,529.321 102.342,529.500 100.335,530.381 98.615,529.355 96.607,529.576 94.600,528.180 92.878,529.319 90.870,527.941 89.148,527.840 87.138,525.238 85.416,527.484 83.406,526.856 81.683,528.671 79.672,524.513 77.948,523.624 75.937,524.851 74.213,524.667 72.201,522.926 70.476,524.666 68.463,524.329 66.737,521.624 64.724,522.818 62.998,521.579 60.983,522.023 59.257,520.779 57.242,519.939 55.514,520.405 53.499,519.598 51.771,518.205 50.043,517.829 48.026,516.056 46.297,517.940 44.280,514.704 42.550,515.737 40.533,517.722 38.803,512.456 36.784,514.678 35.053,514.303 33.034,514.359 31.303,509.788 29.283,509.633 27.551,509.504 25.531,510.995 23.798,509.004 21.777,508.261 20.044,509.549 18.022,509.429 16.289,506.261 14.266,503.684 12.532,508.757 10.798,505.134 8.775,504.135 7.040,503.945 5.016,504.104 3.280,504.501 1.255,501.658 -0.480,498.044 -2.506,498.235 -4.242,499.066 -6.269,499.458 -8.006,498.916 -9.743,498.492 -11.770,494.748 -13.508,495.597 -15.535,495.281 -17.274,495.848 -19.302,493.017 -21.041,495.270 -23.070,490.969 -24.809,490.665 -26.839,491.594 -28.579,490.982 -30.319,488.856 -32.349,490.518 -34.090,487.047 -36.121,488.276 -37.862,484.285 -39.894,482.745 -41.636,482.906 -43.377,483.054 -45.410,480.700 -47.153,480.494 -49.186,479.283 -50.929,477.913 -52.962,476.086 -54.706,477.171 -56.450,475.216 -58.484,474.662 -60.229,473.958 -62.264,469.602 -64.009,467.448 -66.044,465.399 -67.790,463.859 -69.535,461.094 -71.572,459.542 -73.318,454.401 -75.355,451.319 -77.101,450.303 -79.139,443.848 -80.886,439.217 -82.633,435.895 -84.672,431.821 -86.420,429.784 -88.459,422.832 -90.207,418.182 -91.955,414.681 -93.995,410.996 -95.744,407.225 -97.785,397.746 -99.534,392.404 -101.575,385.145 -103.325,380.344 -105.075,373.425 -107.117,365.686 -108.868,359.078 -110.910,349.368 -112.661,342.572 -114.412,333.910 -116.455,325.773 -118.207,318.328 -120.251,308.649 -122.003,300.411 -123.755,293.152 -125.800,281.745 -127.553,272.782 -129.598,262.811 -131.351,252.718 -133.104,243.867 -135.150,233.857 -136.904,223.810 -138.658,213.347 -140.705,203.382 -142.459,197.188 -144.507,185.112 -146.262,176.116 -148.017,168.982 -150.065,158.652 -151.820,152.737 -153.869,141.182 -155.625,134.768 -157.381,128.611 -159.430,121.757 -161.187,115.880 -162.944,108.835 -164.994,102.614 -166.751,97.681 -168.801,94.285 -170.559,91.188 -172.317,87.450 -174.368,85.155 -176.126,82.989 -177.885,81.026 -179.937,81.266 -181.696,81.104 -183.748,82.281 -185.507,82.607 -187.267,84.202 -189.320,86.097 -191.080,88.726 -192.840,92.467 -194.894,95.615 -196.654,97.451 -198.708,101.755 -200.469,106.274 -202.230,109.712 -204.285,117.444 -206.047,121.442 -207.809,124.126 -209.864,131.800 -211.626,137.390 -213.388,139.877 -215.445,145.155 -217.207,146.268 -219.264,154.063 -221.027,157.421 -222.790,161.169 -224.848,162.636 -226.611,166.749 -228.375,169.801 -230.433,171.932 -232.197,173.250 -233.961,176.176 -236.020,177.128 -237.785,178.119 -239.550,178.282 -241.609,177.214 -243.374,174.143 -245.434,172.843 -247.199,169.247 -248.965,168.346 -251.025,163.879 -252.791,156.665 -254.558,152.377 -256.619,144.742 -258.385,142.305 -260.152,136.819 -262.214,128.413 -263.981,122.625 -265.738,115.533 -267.787,106.080 -269.544,99.952 -271.302,95.781 -273.352,78.647 -275.110,62.546 -277.161,40.043 -278.919,10.862 -280.677,-16.332 -282.728,-47.884 -284.487,-41.586 -286.538,-21.053 -288.297,-15.265 -290.056,-17.069 -292.108,-39.410 -293.868,-65.583 -295.627,-95.221 -297.680,-121.108 -299.440,-137.806 -301.200,-147.163 -303.253,-172.589 -305.013,-219.591 -307.067,-302.850 -308.828,-388.073 -310.588,-530.313 -312.643,-838.626 -314.404,-1135.876 -316.165,-1517.125 -318.220,-2088.866 -319.981,-2705.705 -322.036,-3037.278 -323.798,-3346.748 -325.560,-3527.649 -327.616,-3592.944 -329.378,-2485.146 -331.140,-3102.704 -333.197,-2743.399 -334.959,-1936.999 -336.722,-20969.127 -338.779,-747.270 -340.542,-375.983 -342.305,-591.499 -344.362,-785.959 -346.126,838.373 -348.183,229.022 -349.947,-330.561 -351.711,-174.495 -353.769,171.231 -355.533,44.248 -357.298,-42.975 "
         id="polyline3269" />
      <g
         id="g3271" />
    </g>
    <g
       id="ID000005"
       clip-path="url(#ID000001)"
       transform="matrix(0.35514565,0,0,0.35514565,5.6072601,6.0417144)">
      <polyline
         style="fill:none;stroke:#0000ff;stroke-width:2pt;stroke-dasharray:none"
         points="763.506,741.422 761.689,733.820 759.872,739.930 758.054,726.304 756.235,747.416 754.156,711.194 752.335,747.665 750.514,694.016 748.692,732.439 746.870,725.657 744.786,751.873 742.962,740.827 741.138,734.959 739.313,743.524 737.487,735.727 735.660,751.175 733.571,694.821 731.743,724.215 729.914,722.712 728.085,714.103 726.254,689.679 724.424,708.890 722.592,750.073 720.498,726.252 718.665,716.121 716.831,725.651 714.996,744.431 713.161,708.533 711.325,738.440 709.489,737.956 707.652,714.894 705.551,723.449 703.713,713.241 701.873,727.365 700.033,735.601 698.193,711.502 696.351,718.815 694.509,718.617 692.667,721.462 690.823,719.175 688.979,740.587 686.871,712.695 685.025,711.407 683.179,736.429 681.332,726.786 679.485,731.663 677.637,725.340 675.788,721.989 673.938,716.995 672.088,723.287 670.238,729.313 668.386,723.679 666.534,718.484 664.681,727.996 662.828,721.435 660.709,719.752 658.854,712.043 656.998,711.415 655.142,709.021 653.285,708.569 651.428,713.648 649.570,715.887 647.711,714.335 645.852,711.063 643.991,713.346 642.131,714.195 640.269,712.234 638.407,706.636 636.545,702.208 634.681,697.835 632.817,708.754 630.953,707.355 629.087,704.977 627.222,706.498 625.355,717.114 623.488,702.212 621.620,709.394 619.752,704.524 617.882,698.808 616.013,696.324 614.142,695.733 612.271,700.745 610.400,695.408 608.527,692.665 606.655,693.013 604.781,693.404 602.907,693.523 601.032,691.094 599.157,686.945 597.281,692.763 595.404,682.595 593.527,692.169 591.649,681.479 589.770,687.625 587.891,676.611 586.011,682.020 584.131,684.387 582.250,677.562 580.368,680.638 578.755,674.309 576.872,669.412 574.988,664.145 573.104,674.178 571.220,666.916 569.334,659.426 567.448,667.813 565.562,666.952 563.675,678.641 561.787,660.975 559.899,659.124 558.010,649.448 556.120,653.214 554.230,647.209 552.609,644.442 550.718,641.594 548.826,640.847 546.934,647.129 545.041,633.672 543.147,634.016 541.253,626.769 539.358,619.257 537.462,621.545 535.566,626.571 533.669,628.384 532.043,619.216 530.145,629.401 528.247,600.419 526.348,606.181 524.448,607.555 522.548,606.116 520.647,599.563 518.746,595.588 516.844,578.475 515.213,583.761 513.310,589.806 511.406,572.142 509.502,578.198 507.597,577.355 505.692,565.009 503.786,560.891 502.152,554.720 500.245,568.152 498.337,553.587 496.429,551.676 494.520,530.839 492.611,537.479 490.701,539.135 489.063,528.006 487.152,514.070 485.240,523.215 483.328,510.803 481.415,513.837 479.502,513.815 477.862,513.378 475.947,490.778 474.032,498.069 472.117,492.927 470.201,491.906 468.284,481.526 466.641,479.830 464.723,474.974 462.805,468.637 460.886,465.161 458.966,459.537 457.321,452.236 455.400,452.039 453.479,448.405 451.558,437.588 449.635,438.983 447.987,428.659 446.064,427.607 444.141,415.330 442.216,420.242 440.291,413.167 438.641,412.202 436.715,404.264 434.789,397.326 432.862,397.983 430.934,402.628 429.282,395.778 427.353,382.216 425.424,384.826 423.494,378.466 421.564,372.223 419.909,370.133 417.978,369.607 416.047,360.021 414.114,355.482 412.458,359.863 410.524,357.184 408.590,355.241 406.656,347.634 404.998,346.555 403.062,357.651 401.126,345.327 399.190,347.607 397.530,338.688 395.592,344.474 393.654,335.587 391.716,336.801 390.054,340.565 388.115,344.084 386.175,340.184 384.234,341.383 382.570,340.895 380.629,338.826 378.687,342.125 376.744,331.584 375.079,349.659 373.135,344.899 371.191,347.092 369.247,349.807 367.580,348.627 365.634,347.384 363.688,351.090 362.020,356.667 360.073,352.923 358.125,362.510 356.177,357.908 354.507,358.188 352.558,359.774 350.608,367.679 348.937,369.747 346.987,371.195 345.036,374.528 343.363,377.867 341.411,380.433 339.459,385.504 337.506,384.377 335.831,388.694 333.878,392.908 331.923,395.547 330.248,395.934 328.292,399.480 326.337,401.722 324.660,408.356 322.703,409.929 320.746,417.005 319.068,419.085 317.110,418.957 315.151,422.895 313.472,426.792 311.513,423.923 309.553,422.606 307.592,435.274 305.911,430.261 303.950,436.242 301.988,439.059 300.306,442.657 298.343,440.668 296.380,442.150 294.697,441.261 292.732,443.868 291.048,443.782 289.083,444.624 287.118,442.262 285.432,445.377 283.466,445.168 281.499,440.627 279.813,443.412 277.845,442.888 275.877,442.859 274.189,440.570 272.220,438.219 270.250,431.297 268.561,434.799 266.591,432.665 264.620,430.379 262.930,428.438 260.958,424.890 259.268,423.552 257.295,419.860 255.322,418.108 253.630,416.067 251.656,413.141 249.681,411.157 247.988,407.550 246.013,407.478 244.319,407.250 242.343,401.903 240.366,406.368 238.672,403.349 236.694,407.752 234.999,407.109 233.020,409.524 231.041,411.056 229.345,412.209 227.365,416.355 225.385,419.036 223.687,422.077 221.706,424.597 220.008,429.355 218.026,434.283 216.044,439.029 214.344,441.209 212.361,445.781 210.661,450.507 208.677,456.533 206.976,461.157 204.991,466.598 203.006,473.029 201.304,475.754 199.318,482.166 197.615,484.257 195.628,486.819 193.641,492.583 191.937,494.688 189.949,498.826 188.245,502.951 186.256,508.756 184.551,514.235 182.561,510.673 180.571,514.188 178.865,516.951 176.874,517.876 175.167,521.118 173.175,523.347 171.468,522.726 169.475,524.859 167.482,526.536 165.773,529.952 163.780,529.206 162.070,530.793 160.076,532.898 158.366,532.402 156.371,533.643 154.660,531.659 152.664,531.627 150.667,535.028 148.956,534.422 146.959,536.396 145.246,537.307 143.248,532.500 141.535,536.187 139.536,537.221 137.823,535.798 135.823,535.254 134.109,537.889 132.109,539.186 130.108,539.619 128.393,536.776 126.391,537.091 124.675,538.267 122.673,537.416 120.956,536.885 118.953,535.721 117.236,536.260 115.232,536.594 113.515,531.287 111.510,536.043 109.792,535.325 107.787,535.752 106.067,534.455 104.061,534.024 102.342,533.410 100.335,531.476 98.615,533.475 96.607,535.048 94.600,533.412 92.878,535.316 90.870,530.250 89.148,530.940 87.138,528.763 85.416,530.909 83.406,531.675 81.683,532.597 79.672,528.437 77.948,529.198 75.937,529.460 74.213,525.909 72.201,528.945 70.476,529.305 68.463,529.255 66.737,528.121 64.724,529.032 62.998,526.979 60.983,526.703 59.257,525.457 57.242,524.068 55.514,523.141 53.499,525.427 51.771,522.895 50.043,523.228 48.026,523.014 46.297,520.052 44.280,519.318 42.550,523.194 40.533,519.842 38.803,518.702 36.784,519.718 35.053,520.235 33.034,518.420 31.303,515.429 29.283,516.707 27.551,518.609 25.531,515.932 23.798,514.704 21.777,515.183 20.044,515.456 18.022,514.494 16.289,510.338 14.266,509.333 12.532,515.880 10.798,509.709 8.775,509.981 7.040,508.873 5.016,509.834 3.280,507.411 1.255,507.984 -0.480,508.548 -2.506,505.443 -4.242,504.140 -6.269,504.149 -8.006,505.752 -9.743,505.383 -11.770,502.349 -13.508,501.841 -15.535,501.524 -17.274,501.926 -19.302,499.226 -21.041,498.473 -23.070,497.736 -24.809,498.945 -26.839,497.681 -28.579,495.144 -30.319,495.759 -32.349,497.085 -34.090,495.046 -36.121,491.321 -37.862,492.216 -39.894,488.290 -41.636,486.310 -43.377,484.767 -45.410,487.054 -47.153,485.365 -49.186,484.524 -50.929,481.968 -52.962,482.156 -54.706,481.458 -56.450,482.492 -58.484,481.643 -60.229,480.948 -62.264,475.114 -64.009,473.108 -66.044,471.539 -67.790,470.097 -69.535,467.244 -71.572,461.738 -73.318,458.516 -75.355,458.805 -77.101,452.923 -79.139,446.228 -80.886,447.534 -82.633,440.972 -84.672,436.849 -86.420,434.244 -88.459,430.181 -90.207,421.516 -91.955,419.152 -93.995,415.387 -95.744,408.816 -97.785,404.424 -99.534,396.492 -101.575,389.961 -103.325,385.589 -105.075,377.464 -107.117,370.855 -108.868,364.006 -110.910,352.838 -112.661,347.447 -114.412,339.334 -116.455,326.177 -118.207,319.669 -120.251,310.407 -122.003,300.741 -123.755,297.582 -125.800,284.357 -127.553,272.144 -129.598,262.861 -131.351,251.949 -133.104,244.130 -135.150,234.581 -136.904,222.103 -138.658,211.252 -140.705,202.396 -142.459,192.001 -144.507,181.225 -146.262,171.218 -148.017,162.310 -150.065,153.778 -151.820,146.073 -153.869,132.128 -155.625,126.668 -157.381,119.084 -159.430,111.294 -161.187,106.332 -162.944,98.335 -164.994,92.606 -166.751,86.139 -168.801,82.624 -170.559,80.781 -172.317,77.302 -174.368,73.155 -176.126,71.316 -177.885,70.018 -179.937,68.317 -181.696,67.567 -183.748,68.733 -185.507,70.862 -187.267,70.511 -189.320,72.995 -191.080,75.580 -192.840,79.403 -194.894,82.442 -196.654,85.513 -198.708,89.625 -200.469,94.197 -202.230,100.192 -204.285,106.136 -206.047,109.013 -207.809,112.811 -209.864,120.312 -211.626,127.036 -213.388,130.072 -215.445,137.315 -217.207,138.655 -219.264,147.092 -221.027,149.010 -222.790,155.311 -224.848,157.007 -226.611,161.388 -228.375,165.525 -230.433,168.434 -232.197,169.678 -233.961,171.150 -236.020,172.944 -237.785,174.199 -239.550,177.248 -241.609,174.424 -243.374,171.303 -245.434,169.665 -247.199,168.100 -248.965,169.184 -251.025,161.124 -252.791,159.503 -254.558,154.192 -256.619,146.190 -258.385,138.794 -260.152,134.755 -262.214,126.127 -263.981,118.065 -265.738,110.967 -267.787,103.747 -269.544,95.166 -271.302,89.148 -273.352,70.080 -275.110,54.610 -277.161,25.362 -278.919,-7.624 -280.677,-52.805 -282.728,-81.278 -284.487,-72.865 -286.538,-47.972 -288.297,-38.065 -290.056,-37.966 -292.108,-69.845 -293.868,-99.363 -295.627,-130.998 -297.680,-162.022 -299.440,-171.642 -301.200,-182.772 -303.253,-208.058 -305.013,-252.641 -307.067,-351.984 -308.828,-443.872 -310.588,-603.536 -312.643,-864.931 -314.404,-1180.276 -316.165,-1625.622 -318.220,-2271.404 -319.981,-3000.238 -322.036,-3510.511 -323.798,-3716.358 -325.560,-4005.772 -327.616,-2996.426 -329.378,-2950.040 -331.140,-2809.588 -333.197,-21894.116 -334.959,-2523.297 -336.722,-2197.392 -338.779,-1849.252 -340.542,-1197.078 -342.305,-335.671 -344.362,-642.411 -346.126,1383.291 -348.183,103.109 -349.947,-411.023 -351.711,755.215 -353.769,18.695 -355.533,-1094.815 -357.298,-533.719 "
         id="polyline3274" />
      <g
         id="g3276" />
    </g>
    <text
       id="text3283"
       font-size="23pt"
       y="292.80228"
       x="160.51186"
       style="font-style:normal;font-variant:normal;font-weight:normal;font-stretch:normal;font-size:9px;line-height:125%;font-family:Sans;-inkscape-font-specification:Sans;text-align:center;writing-mode:lr-tb;text-anchor:middle;fill:#000000"
       sodipodi:linespacing="125%">Wavelength (nm)</text>
    <text
       id="text3290"
       font-size="23pt"
       y="26.344925"
       x="-150.95819"
       style="font-style:normal;font-variant:normal;font-weight:normal;font-stretch:normal;font-size:9px;line-height:125%;font-family:Sans;-inkscape-font-specification:Sans;text-align:center;writing-mode:lr-tb;text-anchor:middle;fill:#000000"
       transform="matrix(0,-1,1,0,0,0)"
       sodipodi:linespacing="125%">Absorbance (A.U.)</text>
    <g
       id="ID000008"
       transform="matrix(0.35514565,0,0,0.35514565,5.6072601,6.0417144)" />
    <polyline
       style="fill:none;stroke:#000000;stroke-width:2.9931159;stroke-miterlimit:4;stroke-dasharray:none"
       points="203.103,750.938 203.103,744.061 "
       id="polyline3295"
       transform="matrix(0.35514565,0,0,0.35514565,5.6072601,6.0417144)" />
    <polyline
       style="fill:none;stroke:#000000;stroke-width:2.9931159;stroke-miterlimit:4;stroke-dasharray:none"
       points="296.518,750.938 296.518,744.061 "
       id="polyline3297"
       transform="matrix(0.35514565,0,0,0.35514565,5.6072601,6.0417144)" />
    <polyline
       style="fill:none;stroke:#000000;stroke-width:2.9931159;stroke-miterlimit:4;stroke-dasharray:none"
       points="389.933,750.938 389.933,744.061 "
       id="polyline3299"
       transform="matrix(0.35514565,0,0,0.35514565,5.6072601,6.0417144)" />
    <polyline
       style="fill:none;stroke:#000000;stroke-width:2.9931159;stroke-miterlimit:4;stroke-dasharray:none"
       points="483.348,750.938 483.348,744.061 "
       id="polyline3301"
       transform="matrix(0.35514565,0,0,0.35514565,5.6072601,6.0417144)" />
    <polyline
       style="fill:none;stroke:#000000;stroke-width:2.9931159;stroke-miterlimit:4;stroke-dasharray:none"
       points="576.763,750.938 576.763,744.061 "
       id="polyline3303"
       transform="matrix(0.35514565,0,0,0.35514565,5.6072601,6.0417144)" />
    <polyline
       style="fill:none;stroke:#000000;stroke-width:2.9931159;stroke-miterlimit:4;stroke-dasharray:none"
       points="670.179,750.938 670.179,744.061 "
       id="polyline3305"
       transform="matrix(0.35514565,0,0,0.35514565,5.6072601,6.0417144)" />
    <polyline
       style="fill:none;stroke:#000000;stroke-width:2.9931159;stroke-miterlimit:4;stroke-dasharray:none"
       points="109.688,750.938 763.594,750.938 "
       id="polyline3307"
       transform="matrix(0.35514565,0,0,0.35514565,5.6072601,6.0417144)" />
    <polyline
       style="fill:none;stroke:#000000;stroke-width:2.9931159;stroke-miterlimit:4;stroke-dasharray:none"
       points="203.103,63.281 203.103,70.158 "
       id="polyline3309"
       transform="matrix(0.35514565,0,0,0.35514565,5.6072601,6.0417144)" />
    <polyline
       style="fill:none;stroke:#000000;stroke-width:2.9931159;stroke-miterlimit:4;stroke-dasharray:none"
       points="296.518,63.281 296.518,70.158 "
       id="polyline3311"
       transform="matrix(0.35514565,0,0,0.35514565,5.6072601,6.0417144)" />
    <polyline
       style="fill:none;stroke:#000000;stroke-width:2.9931159;stroke-miterlimit:4;stroke-dasharray:none"
       points="389.933,63.281 389.933,70.158 "
       id="polyline3313"
       transform="matrix(0.35514565,0,0,0.35514565,5.6072601,6.0417144)" />
    <polyline
       style="fill:none;stroke:#000000;stroke-width:2.9931159;stroke-miterlimit:4;stroke-dasharray:none"
       points="483.348,63.281 483.348,70.158 "
       id="polyline3315"
       transform="matrix(0.35514565,0,0,0.35514565,5.6072601,6.0417144)" />
    <polyline
       style="fill:none;stroke:#000000;stroke-width:2.9931159;stroke-miterlimit:4;stroke-dasharray:none"
       points="576.763,63.281 576.763,70.158 "
       id="polyline3317"
       transform="matrix(0.35514565,0,0,0.35514565,5.6072601,6.0417144)" />
    <polyline
       style="fill:none;stroke:#000000;stroke-width:2.9931159;stroke-miterlimit:4;stroke-dasharray:none"
       points="670.179,63.281 670.179,70.158 "
       id="polyline3319"
       transform="matrix(0.35514565,0,0,0.35514565,5.6072601,6.0417144)" />
    <polyline
       style="fill:none;stroke:#000000;stroke-width:2.9931159;stroke-miterlimit:4;stroke-dasharray:none"
       points="109.688,63.281 763.594,63.281 "
       id="polyline3321"
       transform="matrix(0.35514565,0,0,0.35514565,5.6072601,6.0417144)" />
    <text
       style="font-style:normal;font-variant:normal;font-weight:normal;font-stretch:normal;font-size:9px;line-height:125%;font-family:Sans;-inkscape-font-specification:Sans;text-align:center;writing-mode:lr-tb;text-anchor:middle;fill:#000000"
       x="44.562477"
       y="285.47598"
       font-size="19pt"
       id="text3327"
       sodipodi:linespacing="125%">450</text>
    <text
       style="font-style:normal;font-variant:normal;font-weight:normal;font-stretch:normal;font-size:9px;line-height:125%;font-family:Sans;-inkscape-font-specification:Sans;text-align:center;writing-mode:lr-tb;text-anchor:middle;fill:#000000"
       x="77.738403"
       y="285.47598"
       font-size="19pt"
       id="text3333"
       sodipodi:linespacing="125%">500</text>
    <text
       style="font-style:normal;font-variant:normal;font-weight:normal;font-stretch:normal;font-size:9px;line-height:125%;font-family:Sans;-inkscape-font-specification:Sans;text-align:center;writing-mode:lr-tb;text-anchor:middle;fill:#000000"
       x="110.91434"
       y="285.47598"
       font-size="19pt"
       id="text3339"
       sodipodi:linespacing="125%">550</text>
    <text
       style="font-style:normal;font-variant:normal;font-weight:normal;font-stretch:normal;font-size:9px;line-height:125%;font-family:Sans;-inkscape-font-specification:Sans;text-align:center;writing-mode:lr-tb;text-anchor:middle;fill:#000000"
       x="144.09027"
       y="285.47598"
       font-size="19pt"
       id="text3345"
       sodipodi:linespacing="125%">600</text>
    <text
       style="font-style:normal;font-variant:normal;font-weight:normal;font-stretch:normal;font-size:9px;line-height:125%;font-family:Sans;-inkscape-font-specification:Sans;text-align:center;writing-mode:lr-tb;text-anchor:middle;fill:#000000"
       x="177.2662"
       y="285.47598"
       font-size="19pt"
       id="text3351"
       sodipodi:linespacing="125%">650</text>
    <text
       style="font-style:normal;font-variant:normal;font-weight:normal;font-stretch:normal;font-size:9px;line-height:125%;font-family:Sans;-inkscape-font-specification:Sans;text-align:center;writing-mode:lr-tb;text-anchor:middle;fill:#000000"
       x="210.44212"
       y="285.47598"
       font-size="19pt"
       id="text3357"
       sodipodi:linespacing="125%">700</text>
    <text
       style="font-style:normal;font-variant:normal;font-weight:normal;font-stretch:normal;font-size:9px;line-height:125%;font-family:Sans;-inkscape-font-specification:Sans;text-align:center;writing-mode:lr-tb;text-anchor:middle;fill:#000000"
       x="243.61842"
       y="285.47598"
       font-size="19pt"
       id="text3363"
       sodipodi:linespacing="125%">750</text>
    <text
       style="font-style:normal;font-variant:normal;font-weight:normal;font-stretch:normal;font-size:9px;line-height:125%;font-family:Sans;-inkscape-font-specification:Sans;text-align:center;writing-mode:lr-tb;text-anchor:middle;fill:#000000"
       x="276.79434"
       y="285.47598"
       font-size="19pt"
       id="text3369"
       sodipodi:linespacing="125%">800</text>
    <polyline
       style="fill:none;stroke:#000000;stroke-width:2.9931159;stroke-miterlimit:4;stroke-dasharray:none"
       points="109.688,682.172 116.564,682.172 "
       id="polyline3371"
       transform="matrix(0.35514565,0,0,0.35514565,5.6072601,6.0417144)" />
    <polyline
       style="fill:none;stroke:#000000;stroke-width:2.9931159;stroke-miterlimit:4;stroke-dasharray:none"
       points="109.688,613.406 116.564,613.406 "
       id="polyline3373"
       transform="matrix(0.35514565,0,0,0.35514565,5.6072601,6.0417144)" />
    <polyline
       style="fill:none;stroke:#000000;stroke-width:2.9931159;stroke-miterlimit:4;stroke-dasharray:none"
       points="109.688,544.641 116.564,544.641 "
       id="polyline3375"
       transform="matrix(0.35514565,0,0,0.35514565,5.6072601,6.0417144)" />
    <polyline
       style="fill:none;stroke:#000000;stroke-width:2.9931159;stroke-miterlimit:4;stroke-dasharray:none"
       points="109.688,475.875 116.564,475.875 "
       id="polyline3377"
       transform="matrix(0.35514565,0,0,0.35514565,5.6072601,6.0417144)" />
    <polyline
       style="fill:none;stroke:#000000;stroke-width:2.9931159;stroke-miterlimit:4;stroke-dasharray:none"
       points="109.688,407.109 116.564,407.109 "
       id="polyline3379"
       transform="matrix(0.35514565,0,0,0.35514565,5.6072601,6.0417144)" />
    <polyline
       style="fill:none;stroke:#000000;stroke-width:2.9931159;stroke-miterlimit:4;stroke-dasharray:none"
       points="109.688,338.344 116.564,338.344 "
       id="polyline3381"
       transform="matrix(0.35514565,0,0,0.35514565,5.6072601,6.0417144)" />
    <polyline
       style="fill:none;stroke:#000000;stroke-width:2.9931159;stroke-miterlimit:4;stroke-dasharray:none"
       points="109.688,269.578 116.564,269.578 "
       id="polyline3383"
       transform="matrix(0.35514565,0,0,0.35514565,5.6072601,6.0417144)" />
    <polyline
       style="fill:none;stroke:#000000;stroke-width:2.9931159;stroke-miterlimit:4;stroke-dasharray:none"
       points="109.688,200.812 116.564,200.812 "
       id="polyline3385"
       transform="matrix(0.35514565,0,0,0.35514565,5.6072601,6.0417144)" />
    <polyline
       style="fill:none;stroke:#000000;stroke-width:2.9931159;stroke-miterlimit:4;stroke-dasharray:none"
       points="109.688,132.047 116.564,132.047 "
       id="polyline3387"
       transform="matrix(0.35514565,0,0,0.35514565,5.6072601,6.0417144)" />
    <polyline
       style="fill:none;stroke:#000000;stroke-width:2.9931159;stroke-miterlimit:4;stroke-dasharray:none"
       points="109.688,750.938 109.688,63.281 "
       id="polyline3389"
       transform="matrix(0.35514565,0,0,0.35514565,5.6072601,6.0417144)" />
    <polyline
       style="fill:none;stroke:#000000;stroke-width:2.9931159;stroke-miterlimit:4;stroke-dasharray:none"
       points="763.594,682.172 756.717,682.172 "
       id="polyline3391"
       transform="matrix(0.35514565,0,0,0.35514565,5.6072601,6.0417144)" />
    <polyline
       style="fill:none;stroke:#000000;stroke-width:2.9931159;stroke-miterlimit:4;stroke-dasharray:none"
       points="763.594,613.406 756.717,613.406 "
       id="polyline3393"
       transform="matrix(0.35514565,0,0,0.35514565,5.6072601,6.0417144)" />
    <polyline
       style="fill:none;stroke:#000000;stroke-width:2.9931159;stroke-miterlimit:4;stroke-dasharray:none"
       points="763.594,544.641 756.717,544.641 "
       id="polyline3395"
       transform="matrix(0.35514565,0,0,0.35514565,5.6072601,6.0417144)" />
    <polyline
       style="fill:none;stroke:#000000;stroke-width:2.9931159;stroke-miterlimit:4;stroke-dasharray:none"
       points="763.594,475.875 756.717,475.875 "
       id="polyline3397"
       transform="matrix(0.35514565,0,0,0.35514565,5.6072601,6.0417144)" />
    <polyline
       style="fill:none;stroke:#000000;stroke-width:2.9931159;stroke-miterlimit:4;stroke-dasharray:none"
       points="763.594,407.109 756.717,407.109 "
       id="polyline3399"
       transform="matrix(0.35514565,0,0,0.35514565,5.6072601,6.0417144)" />
    <polyline
       style="fill:none;stroke:#000000;stroke-width:2.9931159;stroke-miterlimit:4;stroke-dasharray:none"
       points="763.594,338.344 756.717,338.344 "
       id="polyline3401"
       transform="matrix(0.35514565,0,0,0.35514565,5.6072601,6.0417144)" />
    <polyline
       style="fill:none;stroke:#000000;stroke-width:2.9931159;stroke-miterlimit:4;stroke-dasharray:none"
       points="763.594,269.578 756.717,269.578 "
       id="polyline3403"
       transform="matrix(0.35514565,0,0,0.35514565,5.6072601,6.0417144)" />
    <polyline
       style="fill:none;stroke:#000000;stroke-width:2.9931159;stroke-miterlimit:4;stroke-dasharray:none"
       points="763.594,200.812 756.717,200.812 "
       id="polyline3405"
       transform="matrix(0.35514565,0,0,0.35514565,5.6072601,6.0417144)" />
    <polyline
       style="fill:none;stroke:#000000;stroke-width:2.9931159;stroke-miterlimit:4;stroke-dasharray:none"
       points="763.594,132.047 756.717,132.047 "
       id="polyline3407"
       transform="matrix(0.35514565,0,0,0.35514565,5.6072601,6.0417144)" />
    <polyline
       style="fill:none;stroke:#000000;stroke-width:2.9931159;stroke-miterlimit:4;stroke-dasharray:none"
       points="763.594,750.938 763.594,63.281 "
       id="polyline3409"
       transform="matrix(0.35514565,0,0,0.35514565,5.6072601,6.0417144)" />
    <text
       style="font-style:normal;font-variant:normal;font-weight:normal;font-stretch:normal;font-size:9px;line-height:125%;font-family:Sans;-inkscape-font-specification:Sans;text-align:center;writing-mode:lr-tb;text-anchor:middle;fill:#000000"
       x="39.777042"
       y="275.73044"
       font-size="19pt"
       id="text3415"
       sodipodi:linespacing="125%">0</text>
    <text
       style="font-style:normal;font-variant:normal;font-weight:normal;font-stretch:normal;font-size:9px;line-height:125%;font-family:Sans;-inkscape-font-specification:Sans;text-align:center;writing-mode:lr-tb;text-anchor:middle;fill:#000000"
       x="37.245792"
       y="251.3085"
       font-size="19pt"
       id="text3421"
       sodipodi:linespacing="125%">0.1</text>
    <text
       style="font-style:normal;font-variant:normal;font-weight:normal;font-stretch:normal;font-size:9px;line-height:125%;font-family:Sans;-inkscape-font-specification:Sans;text-align:center;writing-mode:lr-tb;text-anchor:middle;fill:#000000"
       x="36.068058"
       y="226.88692"
       font-size="19pt"
       id="text3427"
       sodipodi:linespacing="125%">0.2</text>
    <text
       style="font-style:normal;font-variant:normal;font-weight:normal;font-stretch:normal;font-size:9px;line-height:125%;font-family:Sans;-inkscape-font-specification:Sans;text-align:center;writing-mode:lr-tb;text-anchor:middle;fill:#000000"
       x="36.00214"
       y="202.46497"
       font-size="19pt"
       id="text3433"
       sodipodi:linespacing="125%">0.3</text>
    <text
       style="font-style:normal;font-variant:normal;font-weight:normal;font-stretch:normal;font-size:9px;line-height:125%;font-family:Sans;-inkscape-font-specification:Sans;text-align:center;writing-mode:lr-tb;text-anchor:middle;fill:#000000"
       x="36.028507"
       y="178.04337"
       font-size="19pt"
       id="text3439"
       sodipodi:linespacing="125%">0.4</text>
    <text
       style="font-style:normal;font-variant:normal;font-weight:normal;font-stretch:normal;font-size:9px;line-height:125%;font-family:Sans;-inkscape-font-specification:Sans;text-align:center;writing-mode:lr-tb;text-anchor:middle;fill:#000000"
       x="35.9538"
       y="153.62141"
       font-size="19pt"
       id="text3445"
       sodipodi:linespacing="125%">0.5</text>
    <text
       style="font-style:normal;font-variant:normal;font-weight:normal;font-stretch:normal;font-size:9px;line-height:125%;font-family:Sans;-inkscape-font-specification:Sans;text-align:center;writing-mode:lr-tb;text-anchor:middle;fill:#000000"
       x="36.006535"
       y="129.19948"
       font-size="19pt"
       id="text3451"
       sodipodi:linespacing="125%">0.6</text>
    <text
       style="font-style:normal;font-variant:normal;font-weight:normal;font-stretch:normal;font-size:9px;line-height:125%;font-family:Sans;-inkscape-font-specification:Sans;text-align:center;writing-mode:lr-tb;text-anchor:middle;fill:#000000"
       x="36.00214"
       y="104.77789"
       font-size="19pt"
       id="text3457"
       sodipodi:linespacing="125%">0.7</text>
    <text
       style="font-style:normal;font-variant:normal;font-weight:normal;font-stretch:normal;font-size:9px;line-height:125%;font-family:Sans;-inkscape-font-specification:Sans;text-align:center;writing-mode:lr-tb;text-anchor:middle;fill:#000000"
       x="35.988956"
       y="80.355942"
       font-size="19pt"
       id="text3463"
       sodipodi:linespacing="125%">0.8</text>
    <text
       style="font-style:normal;font-variant:normal;font-weight:normal;font-stretch:normal;font-size:9px;line-height:125%;font-family:Sans;-inkscape-font-specification:Sans;text-align:center;writing-mode:lr-tb;text-anchor:middle;fill:#000000"
       x="35.988956"
       y="55.933994"
       font-size="19pt"
       id="text3469"
       sodipodi:linespacing="125%">0.9</text>
    <text
       style="font-style:normal;font-variant:normal;font-weight:normal;font-stretch:normal;font-size:9px;line-height:125%;font-family:Sans;-inkscape-font-specification:Sans;text-align:center;writing-mode:lr-tb;text-anchor:middle;fill:#000000"
       x="40.998722"
       y="31.512405"
       font-size="19pt"
       id="text3475"
       sodipodi:linespacing="125%">1</text>
    <polyline
       style="fill:none;stroke:#000000;stroke-width:0.5pt;stroke-dasharray:none"
       points="109.688,750.938 109.688,744.061 "
       id="polyline3477"
       transform="matrix(0.35514565,0,0,0.35514565,5.6072601,6.0417144)" />
    <polyline
       style="fill:none;stroke:#000000;stroke-width:0.5pt;stroke-dasharray:none"
       points="109.688,750.938 109.688,750.937 "
       id="polyline3479"
       transform="matrix(0.35514565,0,0,0.35514565,5.6072601,6.0417144)" />
    <g
       id="g3485"
       transform="matrix(0.35514565,0,0,0.35514565,5.6072601,6.0417144)" />
    <path
       style="fill:none;fill-rule:evenodd;stroke:#000000;stroke-width:1px;stroke-linecap:butt;stroke-linejoin:miter;stroke-opacity:1;marker-end:url(#Arrow1Mend)"
       d="m 181.74854,55.231135 c -51.37573,0 -51.37573,0 -51.37573,0"
       id="path6060"
       inkscape:connector-curvature="0" />
    <text
       xml:space="preserve"
       style="font-style:normal;font-variant:normal;font-weight:normal;font-stretch:normal;font-size:9px;line-height:125%;font-family:sans-serif;-inkscape-font-specification:'sans-serif, Normal';text-align:center;letter-spacing:0px;word-spacing:0px;writing-mode:lr-tb;text-anchor:middle;fill:#000000;fill-opacity:1;stroke:none;stroke-width:1px;stroke-linecap:butt;stroke-linejoin:miter;stroke-opacity:1"
       x="157.99417"
       y="50.811718"
       id="text6080"
       sodipodi:linespacing="125%"><tspan
         sodipodi:role="line"
         id="tspan6082"
         x="157.99417"
         y="50.811718">Time</tspan></text>
  </g>
  <g
     inkscape:groupmode="layer"
     id="layer2"
     inkscape:label="Inset"
     sodipodi:insensitive="true"
     transform="translate(-19.507034,-24.946973)">
    <polygon
       id="polygon5713"
       points="475.125,29.531 85.313,29.531 85.313,332.813 475.125,332.813 "
       style="fill:#ffffff;fill-opacity:1;stroke:none"
       transform="matrix(0.20085709,0,0,0.20085709,73.964973,186.0289)" />
    <polygon
       id="polygon5715"
       points="475.125,29.531 85.313,29.531 85.313,29.531 475.125,29.531 "
       style="fill:#ffffff;fill-opacity:1;stroke:none"
       transform="matrix(0.20085709,0,0,0.20085709,73.964973,186.0289)" />
    <polygon
       id="polygon5717"
       points="85.313,29.531 85.313,29.531 85.313,332.813 85.313,332.813 "
       style="fill:#ffffff;fill-opacity:1;stroke:none"
       transform="matrix(0.20085709,0,0,0.20085709,73.964973,186.0289)" />
    <g
       id="ID000002-8"
       clip-path="url(#ID000001-4)"
       transform="matrix(0.20085709,0,0,0.20085709,73.964973,186.0289)">
      <g
         id="g5722">
        <circle
           style="fill:#000000;stroke:none"
           cx="85.313004"
           cy="101.844"
           r="4.1669998"
           id="circle5724" />
        <circle
           style="fill:#000000;stroke:none"
           cx="100.039"
           cy="180.978"
           r="4.1669998"
           id="circle5726" />
        <circle
           style="fill:#000000;stroke:none"
           cx="120.829"
           cy="200.8"
           r="4.1669998"
           id="circle5728" />
        <circle
           style="fill:#000000;stroke:none"
           cx="152.01401"
           cy="228.22501"
           r="4.1669998"
           id="circle5730" />
        <circle
           style="fill:#000000;stroke:none"
           cx="174.536"
           cy="243.31799"
           r="4.1669998"
           id="circle5732" />
        <circle
           style="fill:#000000;stroke:none"
           cx="216.98199"
           cy="257.75699"
           r="4.1669998"
           id="circle5734" />
        <circle
           style="fill:#000000;stroke:none"
           cx="224.77901"
           cy="275.267"
           r="4.1669998"
           id="circle5736" />
        <circle
           style="fill:#000000;stroke:none"
           cx="271.556"
           cy="288.267"
           r="4.1669998"
           id="circle5738" />
        <circle
           style="fill:#000000;stroke:none"
           cx="281.95099"
           cy="300.07101"
           r="4.1669998"
           id="circle5740" />
        <circle
           style="fill:#000000;stroke:none"
           cx="310.53699"
           cy="304.077"
           r="4.1669998"
           id="circle5742" />
        <circle
           style="fill:#000000;stroke:none"
           cx="331.327"
           cy="308.87"
           r="4.1669998"
           id="circle5744" />
        <circle
           style="fill:#000000;stroke:none"
           cx="360.78"
           cy="315.44101"
           r="4.1669998"
           id="circle5746" />
        <circle
           style="fill:#000000;stroke:none"
           cx="382.436"
           cy="316.39099"
           r="4.1669998"
           id="circle5748" />
      </g>
    </g>
    <text
       id="text5755"
       font-size="19pt"
       y="267.57034"
       x="149.43645"
       style="font-style:normal;font-variant:normal;font-weight:normal;font-stretch:normal;font-size:8px;line-height:125%;font-family:Sans;-inkscape-font-specification:Sans;text-align:end;writing-mode:lr-tb;text-anchor:end;fill:#000000"
       sodipodi:linespacing="125%">Time (min)</text>
    <text
       id="text5762"
       font-size="19pt"
       y="70.035629"
       x="-206.8717"
       style="font-style:normal;font-variant:normal;font-weight:normal;font-stretch:normal;font-size:8px;line-height:125%;font-family:Sans;-inkscape-font-specification:Sans;text-align:end;writing-mode:lr-tb;text-anchor:end;fill:#000000"
       transform="matrix(0,-1,1,0,0,0)"
       sodipodi:linespacing="125%">SPR (nm)</text>
    <g
       id="ID000005-4"
       transform="matrix(0.20085709,0,0,0.20085709,73.964973,188.0289)" />
    <polyline
       style="fill:none;stroke:#000000;stroke-width:0.5pt;stroke-dasharray:none"
       points="215.250,332.813 215.250,328.914 "
       id="polyline5767"
       transform="matrix(0.20085709,0,0,0.20085709,73.964973,186.0289)" />
    <polyline
       style="fill:none;stroke:#000000;stroke-width:0.5pt;stroke-dasharray:none"
       points="345.188,332.813 345.188,328.914 "
       id="polyline5769"
       transform="matrix(0.20085709,0,0,0.20085709,73.964973,186.0289)" />
    <polyline
       style="fill:none;stroke:#000000;stroke-width:0.5pt;stroke-dasharray:none"
       points="85.313,332.813 475.125,332.813 "
       id="polyline5771"
       transform="matrix(0.20085709,0,0,0.20085709,73.964973,186.0289)" />
    <polyline
       style="fill:none;stroke:#000000;stroke-width:0.5pt;stroke-dasharray:none"
       points="215.250,29.531 215.250,33.429 "
       id="polyline5773"
       transform="matrix(0.20085709,0,0,0.20085709,73.964973,186.0289)" />
    <polyline
       style="fill:none;stroke:#000000;stroke-width:0.5pt;stroke-dasharray:none"
       points="345.188,29.531 345.188,33.429 "
       id="polyline5775"
       transform="matrix(0.20085709,0,0,0.20085709,73.964973,186.0289)" />
    <polyline
       style="fill:none;stroke:#000000;stroke-width:0.5pt;stroke-dasharray:none"
       points="85.313,29.531 475.125,29.531 "
       id="polyline5777"
       transform="matrix(0.20085709,0,0,0.20085709,73.964973,186.0289)" />
    <text
       style="font-style:normal;font-variant:normal;font-weight:normal;font-stretch:normal;font-size:8px;line-height:125%;font-family:Sans;-inkscape-font-specification:Sans;text-align:end;writing-mode:lr-tb;text-anchor:end;fill:#000000"
       x="93.354599"
       y="260.53891"
       font-size="19pt"
       id="text5783"
       sodipodi:linespacing="125%">0</text>
    <text
       style="font-style:normal;font-variant:normal;font-weight:normal;font-stretch:normal;font-size:8px;line-height:125%;font-family:Sans;-inkscape-font-specification:Sans;text-align:end;writing-mode:lr-tb;text-anchor:end;fill:#000000"
       x="119.42212"
       y="260.53891"
       font-size="19pt"
       id="text5789"
       sodipodi:linespacing="125%">5</text>
    <text
       style="font-style:normal;font-variant:normal;font-weight:normal;font-stretch:normal;font-size:8px;line-height:125%;font-family:Sans;-inkscape-font-specification:Sans;text-align:end;writing-mode:lr-tb;text-anchor:end;fill:#000000"
       x="147.50937"
       y="260.53891"
       font-size="19pt"
       id="text5795"
       sodipodi:linespacing="125%">10</text>
    <text
       style="font-style:normal;font-variant:normal;font-weight:normal;font-stretch:normal;font-size:8px;line-height:125%;font-family:Sans;-inkscape-font-specification:Sans;text-align:end;writing-mode:lr-tb;text-anchor:end;fill:#000000"
       x="173.57689"
       y="260.53891"
       font-size="19pt"
       id="text5801"
       sodipodi:linespacing="125%">15</text>
    <polyline
       style="fill:none;stroke:#000000;stroke-width:0.5pt;stroke-dasharray:none"
       points="85.313,256.992 89.211,256.992 "
       id="polyline5803"
       transform="matrix(0.20085709,0,0,0.20085709,73.964973,186.0289)" />
    <polyline
       style="fill:none;stroke:#000000;stroke-width:0.5pt;stroke-dasharray:none"
       points="85.313,181.172 89.211,181.172 "
       id="polyline5805"
       transform="matrix(0.20085709,0,0,0.20085709,73.964973,186.0289)" />
    <polyline
       style="fill:none;stroke:#000000;stroke-width:0.5pt;stroke-dasharray:none"
       points="85.313,105.352 89.211,105.352 "
       id="polyline5807"
       transform="matrix(0.20085709,0,0,0.20085709,73.964973,186.0289)" />
    <polyline
       style="fill:none;stroke:#000000;stroke-width:0.5pt;stroke-dasharray:none"
       points="85.313,332.813 85.313,29.531 "
       id="polyline5809"
       transform="matrix(0.20085709,0,0,0.20085709,73.964973,186.0289)" />
    <polyline
       style="fill:none;stroke:#000000;stroke-width:0.5pt;stroke-dasharray:none"
       points="475.125,256.992 471.227,256.992 "
       id="polyline5811"
       transform="matrix(0.20085709,0,0,0.20085709,73.964973,186.0289)" />
    <polyline
       style="fill:none;stroke:#000000;stroke-width:0.5pt;stroke-dasharray:none"
       points="475.125,181.172 471.227,181.172 "
       id="polyline5813"
       transform="matrix(0.20085709,0,0,0.20085709,73.964973,186.0289)" />
    <polyline
       style="fill:none;stroke:#000000;stroke-width:0.5pt;stroke-dasharray:none"
       points="475.125,105.352 471.227,105.352 "
       id="polyline5815"
       transform="matrix(0.20085709,0,0,0.20085709,73.964973,186.0289)" />
    <polyline
       style="fill:none;stroke:#000000;stroke-width:0.5pt;stroke-dasharray:none"
       points="475.125,332.813 475.125,29.531 "
       id="polyline5817"
       transform="matrix(0.20085709,0,0,0.20085709,73.964973,186.0289)" />
    <text
       style="font-style:normal;font-variant:normal;font-weight:normal;font-stretch:normal;font-size:8px;line-height:125%;font-family:Sans;-inkscape-font-specification:Sans;text-align:end;writing-mode:lr-tb;text-anchor:end;fill:#000000"
       x="89.534615"
       y="257.70291"
       font-size="19pt"
       id="text5823"
       sodipodi:linespacing="125%">590</text>
    <text
       style="font-style:normal;font-variant:normal;font-weight:normal;font-stretch:normal;font-size:8px;line-height:125%;font-family:Sans;-inkscape-font-specification:Sans;text-align:end;writing-mode:lr-tb;text-anchor:end;fill:#000000"
       x="89.534615"
       y="242.47374"
       font-size="19pt"
       id="text5829"
       sodipodi:linespacing="125%">600</text>
    <text
       style="font-style:normal;font-variant:normal;font-weight:normal;font-stretch:normal;font-size:8px;line-height:125%;font-family:Sans;-inkscape-font-specification:Sans;text-align:end;writing-mode:lr-tb;text-anchor:end;fill:#000000"
       x="89.534615"
       y="227.24475"
       font-size="19pt"
       id="text5835"
       sodipodi:linespacing="125%">610</text>
    <text
       style="font-style:normal;font-variant:normal;font-weight:normal;font-stretch:normal;font-size:8px;line-height:125%;font-family:Sans;-inkscape-font-specification:Sans;text-align:end;writing-mode:lr-tb;text-anchor:end;fill:#000000"
       x="89.534615"
       y="212.01576"
       font-size="19pt"
       id="text5841"
       sodipodi:linespacing="125%">620</text>
    <text
       style="font-style:normal;font-variant:normal;font-weight:normal;font-stretch:normal;font-size:8px;line-height:125%;font-family:Sans;-inkscape-font-specification:Sans;text-align:end;writing-mode:lr-tb;text-anchor:end;fill:#000000"
       x="90.292229"
       y="194.78462"
       font-size="19pt"
       id="text5847"
       sodipodi:linespacing="125%">630</text>
    <polyline
       style="fill:none;stroke:#000000;stroke-width:0.5pt;stroke-dasharray:none"
       points="85.313,332.813 85.313,329.780 "
       id="polyline5849"
       transform="matrix(0.20085709,0,0,0.20085709,73.964973,186.0289)" />
    <polyline
       style="fill:none;stroke:#000000;stroke-width:0.5pt;stroke-dasharray:none"
       points="85.313,332.813 85.313,332.813 "
       id="polyline5851"
       transform="matrix(0.20085709,0,0,0.20085709,73.964973,186.0289)" />
  </g>
</svg>
