<?xml version="1.0" encoding="UTF-8" standalone="no"?>
<!-- Created with Inkscape (http://www.inkscape.org/) -->

<svg
   xmlns:dc="http://purl.org/dc/elements/1.1/"
   xmlns:cc="http://creativecommons.org/ns#"
   xmlns:rdf="http://www.w3.org/1999/02/22-rdf-syntax-ns#"
   xmlns:svg="http://www.w3.org/2000/svg"
   xmlns="http://www.w3.org/2000/svg"
   xmlns:sodipodi="http://sodipodi.sourceforge.net/DTD/sodipodi-0.dtd"
   xmlns:inkscape="http://www.inkscape.org/namespaces/inkscape"
   width="66.330223mm"
   height="67.350288mm"
   viewBox="0 0 235.02835 238.64275"
   id="svg7368"
   version="1.1"
   inkscape:version="0.91 r13725"
   sodipodi:docname="02_Simulations_02.svg"
   inkscape:export-filename="C:\Users\aquiles\Documents\Thesis\Chapters\02_KCN\Figures\02_Simulations\02_Simulations_02.png"
   inkscape:export-xdpi="299.82053"
   inkscape:export-ydpi="299.82053">
  <defs
     id="defs7370" />
  <sodipodi:namedview
     id="base"
     pagecolor="#ffffff"
     bordercolor="#666666"
     borderopacity="1.0"
     inkscape:pageopacity="1"
     inkscape:pageshadow="2"
     inkscape:zoom="1.3803059"
     inkscape:cx="-41.020657"
     inkscape:cy="75.106735"
     inkscape:document-units="px"
     inkscape:current-layer="layer1"
     showgrid="false"
     fit-margin-top="0"
     fit-margin-left="0"
     fit-margin-right="0"
     fit-margin-bottom="0"
     inkscape:window-width="1680"
     inkscape:window-height="987"
     inkscape:window-x="-8"
     inkscape:window-y="-8"
     inkscape:window-maximized="1" />
  <metadata
     id="metadata7373">
    <rdf:RDF>
      <cc:Work
         rdf:about="">
        <dc:format>image/svg+xml</dc:format>
        <dc:type
           rdf:resource="http://purl.org/dc/dcmitype/StillImage" />
        <dc:title></dc:title>
      </cc:Work>
    </rdf:RDF>
  </metadata>
  <g
     inkscape:label="Layer 1"
     inkscape:groupmode="layer"
     id="layer1"
     transform="translate(-174.26355,-582.88227)">
    <polygon
       id="polygon5854"
       points="551.484,45.703 79.219,45.703 79.219,542.344 551.484,542.344 "
       style="display:inline;fill:#ffffff;fill-opacity:1;stroke:none"
       transform="matrix(0.42429007,0,0,0.42429007,166.4209,567.33267)" />
    <rect
       style="display:inline;fill:#595c5c;fill-opacity:0.41009468;stroke:none;stroke-width:0.88293332;stroke-opacity:1"
       id="rect5108-2"
       width="89.788322"
       height="42.447147"
       x="210.58708"
       y="598.66522" />
    <polygon
       id="polygon5856"
       points="551.484,45.703 79.219,45.703 79.219,45.703 551.484,45.703 "
       style="display:inline;fill:#ffffff;fill-opacity:1;stroke:none"
       transform="matrix(0.42429007,0,0,0.42429007,166.4209,567.33267)" />
    <polygon
       id="polygon5858"
       points="79.219,45.703 79.219,45.703 79.219,542.344 79.219,542.344 "
       style="display:inline;fill:#ffffff;fill-opacity:1;stroke:none"
       transform="matrix(0.42429007,0,0,0.42429007,166.4209,567.33267)" />
    <polyline
       id="polyline5863"
       points="135.168,505.694 "
       style="display:inline;fill:none;stroke:#000000;stroke-width:2pt;stroke-dasharray:8, 2"
       transform="matrix(0.42429007,0,0,0.42429007,166.4209,567.33267)" />
    <polygon
       style="display:inline;fill:none;stroke:#000000;stroke-width:2pt;stroke-dasharray:none;stroke-opacity:1"
       points="131.168,509.694 139.168,509.694 139.168,501.694 131.168,501.694 131.168,501.694 "
       id="polygon5867"
       transform="matrix(0.42429007,0,0,0.42429007,166.4209,567.33267)" />
    <polyline
       id="polyline5870"
       points="209.112,468.504 "
       style="display:inline;fill:none;stroke:#0072b2;stroke-width:2pt;stroke-dasharray:8, 2;stroke-opacity:1"
       transform="matrix(0.42429007,0,0,0.42429007,166.4209,567.33267)" />
    <polygon
       style="display:inline;fill:none;stroke:#000000;stroke-width:2pt;stroke-dasharray:none;stroke-opacity:1"
       points="205.112,472.504 213.112,472.504 213.112,464.504 205.112,464.504 205.112,464.504 "
       id="polygon5874"
       transform="matrix(0.42429007,0,0,0.42429007,166.4209,567.33267)" />
    <polyline
       id="polyline5877"
       points="204.963,465.731 "
       style="display:inline;fill:none;stroke:#0072b2;stroke-width:2pt;stroke-dasharray:8, 2;stroke-opacity:1"
       transform="matrix(0.42429007,0,0,0.42429007,166.4209,567.33267)" />
    <polygon
       style="display:inline;fill:none;stroke:#0072b2;stroke-width:2pt;stroke-dasharray:none;stroke-opacity:1"
       points="200.963,469.731 208.963,469.731 208.963,461.731 200.963,461.731 200.963,461.731 "
       id="polygon5881"
       transform="matrix(0.42429007,0,0,0.42429007,166.4209,567.33267)" />
    <polyline
       id="polyline5884"
       points="259.712,458.766 "
       style="display:inline;fill:none;stroke:#000000;stroke-width:2pt;stroke-dasharray:8, 2"
       transform="matrix(0.42429007,0,0,0.42429007,166.4209,567.33267)" />
    <polygon
       style="display:inline;fill:none;stroke:#000000;stroke-width:2pt;stroke-dasharray:none;stroke-opacity:1"
       points="255.712,462.766 263.712,462.766 263.712,454.766 255.712,454.766 255.712,454.766 "
       id="polygon5888"
       transform="matrix(0.42429007,0,0,0.42429007,166.4209,567.33267)" />
    <polyline
       id="polyline5891"
       points="319.944,408.803 "
       style="display:inline;fill:none;stroke:#0072b2;stroke-width:2pt;stroke-dasharray:8, 2;stroke-opacity:1"
       transform="matrix(0.42429007,0,0,0.42429007,166.4209,567.33267)" />
    <polygon
       style="display:inline;fill:none;stroke:#0072b2;stroke-width:2pt;stroke-dasharray:none;stroke-opacity:1"
       points="315.944,412.803 323.944,412.803 323.944,404.803 315.944,404.803 315.944,404.803 "
       id="polygon5895"
       transform="matrix(0.42429007,0,0,0.42429007,166.4209,567.33267)" />
    <polyline
       id="polyline5898"
       points="496.261,330.876 "
       style="display:inline;fill:none;stroke:#0072b2;stroke-width:2pt;stroke-dasharray:8, 2;stroke-opacity:1"
       transform="matrix(0.42429007,0,0,0.42429007,166.4209,567.33267)" />
    <polygon
       style="display:inline;fill:none;stroke:#0072b2;stroke-width:2pt;stroke-dasharray:none;stroke-opacity:1"
       points="492.261,334.876 500.261,334.876 500.261,326.876 492.261,326.876 492.261,326.876 "
       id="polygon5902"
       transform="matrix(0.42429007,0,0,0.42429007,166.4209,567.33267)" />
    <text
       id="text5909"
       font-size="19pt"
       y="819.51331"
       x="300.33371"
       style="font-style:normal;font-variant:normal;font-weight:normal;font-stretch:normal;font-size:10px;line-height:123.00000191%;font-family:Sans;-inkscape-font-specification:'Sans, Normal';text-align:center;writing-mode:lr-tb;text-anchor:middle;display:inline;fill:#000000"
       sodipodi:linespacing="123%">Initial SPR (nm)</text>
    <text
       id="text5916"
       font-size="19pt"
       y="181.91003"
       x="-691.97766"
       style="font-style:normal;font-variant:normal;font-weight:normal;font-stretch:normal;font-size:10px;line-height:123.00000191%;font-family:Sans;-inkscape-font-specification:'Sans, Normal';text-align:center;writing-mode:lr-tb;text-anchor:middle;display:inline;fill:#000000"
       transform="matrix(0,-1,1,0,0,0)"
       sodipodi:linespacing="123%">Shift rate (nm/step)</text>
    <polyline
       id="polyline5919"
       points="135.168,505.694 209.112,468.504 204.963,465.731 259.712,458.766 319.944,408.803 496.261,330.876 "
       style="display:inline;fill:none;stroke:#000000;stroke-width:2pt;stroke-dasharray:8, 2"
       transform="matrix(0.42429007,0,0,0.42429007,166.4209,567.33267)" />
    <polygon
       style="display:inline;fill:none;stroke:#000000;stroke-width:2pt;stroke-dasharray:none;stroke-opacity:1"
       points="131.168,509.694 139.168,509.694 139.168,501.694 131.168,501.694 131.168,501.694 "
       id="polygon5923"
       transform="matrix(0.42429007,0,0,0.42429007,166.4209,567.33267)" />
    <polygon
       style="display:inline;fill:none;stroke:#000000;stroke-width:2pt;stroke-dasharray:none;stroke-opacity:1"
       points="205.112,472.504 213.112,472.504 213.112,464.504 205.112,464.504 205.112,464.504 "
       id="polygon5925"
       transform="matrix(0.42429007,0,0,0.42429007,166.4209,567.33267)" />
    <polygon
       style="display:inline;fill:none;stroke:#0072b2;stroke-width:2pt;stroke-dasharray:none;stroke-opacity:1"
       points="200.963,469.731 208.963,469.731 208.963,461.731 200.963,461.731 200.963,461.731 "
       id="polygon5927"
       transform="matrix(0.42429007,0,0,0.42429007,166.4209,567.33267)" />
    <polygon
       style="display:inline;fill:none;stroke:#000000;stroke-width:2pt;stroke-dasharray:none;stroke-opacity:1"
       points="255.712,462.766 263.712,462.766 263.712,454.766 255.712,454.766 255.712,454.766 "
       id="polygon5929"
       transform="matrix(0.42429007,0,0,0.42429007,166.4209,567.33267)" />
    <polygon
       style="display:inline;fill:none;stroke:#0072b2;stroke-width:2pt;stroke-dasharray:none;stroke-opacity:1"
       points="315.944,412.803 323.944,412.803 323.944,404.803 315.944,404.803 315.944,404.803 "
       id="polygon5931"
       transform="matrix(0.42429007,0,0,0.42429007,166.4209,567.33267)" />
    <polygon
       style="display:inline;fill:none;stroke:#0072b2;stroke-width:2pt;stroke-dasharray:none;stroke-opacity:1"
       points="492.261,334.876 500.261,334.876 500.261,326.876 492.261,326.876 492.261,326.876 "
       id="polygon5933"
       transform="matrix(0.42429007,0,0,0.42429007,166.4209,567.33267)" />
    <polyline
       id="polyline5936"
       points="135.168,505.694 209.112,468.504 204.963,465.731 259.712,458.766 319.944,408.803 496.261,330.876 "
       style="display:inline;fill:none;stroke:#0072b2;stroke-width:3.53531718;stroke-miterlimit:4;stroke-dasharray:none;stroke-opacity:1"
       transform="matrix(0.42429007,0,0,0.42429007,166.4209,567.33267)" />
    <polygon
       style="display:inline;fill:none;stroke:#0072b2;stroke-width:2pt;stroke-dasharray:none;stroke-opacity:1"
       points="131.168,509.694 139.168,509.694 139.168,501.694 131.168,501.694 131.168,501.694 "
       id="polygon5940"
       transform="matrix(0.42429007,0,0,0.42429007,166.4209,567.33267)" />
    <polygon
       style="display:inline;fill:none;stroke:#0072b2;stroke-width:2pt;stroke-dasharray:none;stroke-opacity:1"
       points="205.112,472.504 213.112,472.504 213.112,464.504 205.112,464.504 205.112,464.504 "
       id="polygon5942"
       transform="matrix(0.42429007,0,0,0.42429007,166.4209,567.33267)" />
    <polygon
       style="display:inline;fill:none;stroke:#0072b2;stroke-width:2pt;stroke-dasharray:none;stroke-opacity:1"
       points="200.963,469.731 208.963,469.731 208.963,461.731 200.963,461.731 200.963,461.731 "
       id="polygon5944"
       transform="matrix(0.42429007,0,0,0.42429007,166.4209,567.33267)" />
    <polygon
       style="display:inline;fill:none;stroke:#0072b2;stroke-width:2pt;stroke-dasharray:none;stroke-opacity:1"
       points="255.712,462.766 263.712,462.766 263.712,454.766 255.712,454.766 255.712,454.766 "
       id="polygon5946"
       transform="matrix(0.42429007,0,0,0.42429007,166.4209,567.33267)" />
    <polygon
       style="display:inline;fill:none;stroke:#0072b2;stroke-width:2pt;stroke-dasharray:none;stroke-opacity:1"
       points="315.944,412.803 323.944,412.803 323.944,404.803 315.944,404.803 315.944,404.803 "
       id="polygon5948"
       transform="matrix(0.42429007,0,0,0.42429007,166.4209,567.33267)" />
    <polygon
       style="display:inline;fill:none;stroke:#0072b2;stroke-width:2pt;stroke-dasharray:none;stroke-opacity:1"
       points="492.261,334.876 500.261,334.876 500.261,326.876 492.261,326.876 492.261,326.876 "
       id="polygon5950"
       transform="matrix(0.42429007,0,0,0.42429007,166.4209,567.33267)" />
    <polyline
       id="polyline5953"
       points="138.994,467.600 147.247,466.266 188.798,454.648 195.057,440.234 242.345,435.903 337.936,339.133 444.467,263.067 "
       style="display:inline;fill:none;stroke:#009e73;stroke-width:3.53531718;stroke-miterlimit:4;stroke-dasharray:none;stroke-opacity:1"
       transform="matrix(0.42429007,0,0,0.42429007,166.4209,567.33267)" />
    <circle
       style="display:inline;fill:none;stroke:#009e73;stroke-width:0.84858017pt;stroke-opacity:1"
       cx="225.39467"
       cy="765.73071"
       r="1.2728702"
       id="circle5957" />
    <circle
       style="display:inline;fill:none;stroke:#009e73;stroke-width:0.84858017pt;stroke-opacity:1"
       cx="228.89633"
       cy="765.16467"
       r="1.2728702"
       id="circle5959" />
    <circle
       style="display:inline;fill:none;stroke:#009e73;stroke-width:0.84858017pt;stroke-opacity:1"
       cx="246.52602"
       cy="760.23529"
       r="1.2728702"
       id="circle5961" />
    <circle
       style="display:inline;fill:none;stroke:#009e73;stroke-width:0.84858017pt;stroke-opacity:1"
       cx="249.18164"
       cy="754.11957"
       r="1.2728702"
       id="circle5963" />
    <circle
       style="display:inline;fill:none;stroke:#009e73;stroke-width:0.84858017pt;stroke-opacity:1"
       cx="269.24548"
       cy="752.28198"
       r="1.2728702"
       id="circle5965" />
    <circle
       style="display:inline;fill:none;stroke:#009e73;stroke-width:0.84858017pt;stroke-opacity:1"
       cx="309.80377"
       cy="711.22345"
       r="1.2728702"
       id="circle5967" />
    <circle
       style="display:inline;fill:none;stroke:#009e73;stroke-width:0.84858017pt;stroke-opacity:1"
       cx="355.00381"
       cy="678.9494"
       r="1.2728702"
       id="circle5969" />
    <polyline
       id="polyline5972"
       points="120.132,469.895 183.699,411.424 253.773,344.142 345.222,233.007 496.818,99.132 "
       style="display:inline;fill:none;stroke:#d55e00;stroke-width:3.53531718;stroke-miterlimit:4;stroke-dasharray:none;stroke-opacity:1"
       transform="matrix(0.42429007,0,0,0.42429007,166.4209,567.33267)" />
    <polygon
       style="display:inline;fill:none;stroke:#d55e00;stroke-width:3.53531718;stroke-miterlimit:4;stroke-dasharray:none;stroke-opacity:1"
       points="120.132,473.895 122.96,469.895 120.132,465.895 117.304,469.895 117.304,469.895 "
       id="polygon5976"
       transform="matrix(0.42429007,0,0,0.42429007,166.4209,567.33267)" />
    <polygon
       style="display:inline;fill:none;stroke:#d55e00;stroke-width:3.53531718;stroke-miterlimit:4;stroke-dasharray:none;stroke-opacity:1"
       points="183.699,415.424 186.527,411.424 183.699,407.424 180.87,411.424 180.87,411.424 "
       id="polygon5978"
       transform="matrix(0.42429007,0,0,0.42429007,166.4209,567.33267)" />
    <polygon
       style="display:inline;fill:none;stroke:#d55e00;stroke-width:3.53531718;stroke-miterlimit:4;stroke-dasharray:none;stroke-opacity:1"
       points="253.773,348.142 256.601,344.142 253.773,340.142 250.944,344.142 250.944,344.142 "
       id="polygon5980"
       transform="matrix(0.42429007,0,0,0.42429007,166.4209,567.33267)" />
    <polygon
       style="display:inline;fill:none;stroke:#d55e00;stroke-width:3.53531718;stroke-miterlimit:4;stroke-dasharray:none;stroke-opacity:1"
       points="345.222,237.007 348.051,233.007 345.222,229.007 342.394,233.007 342.394,233.007 "
       id="polygon5982"
       transform="matrix(0.42429007,0,0,0.42429007,166.4209,567.33267)" />
    <polygon
       style="display:inline;fill:none;stroke:#d55e00;stroke-width:3.53531718;stroke-miterlimit:4;stroke-dasharray:none;stroke-opacity:1"
       points="496.818,103.132 499.647,99.132 496.818,95.132 493.99,99.132 493.99,99.132 "
       id="polygon5984"
       transform="matrix(0.42429007,0,0,0.42429007,166.4209,567.33267)" />
    <polyline
       style="display:inline;fill:none;stroke:#000000;stroke-width:4.71375608;stroke-miterlimit:4;stroke-dasharray:none"
       points="131.693,542.344 131.693,537.377 "
       id="polyline5989"
       transform="matrix(0.42429007,0,0,0.42429007,166.4209,567.33267)" />
    <polyline
       style="display:inline;fill:none;stroke:#000000;stroke-width:4.71375608;stroke-miterlimit:4;stroke-dasharray:none"
       points="236.641,542.344 236.641,537.377 "
       id="polyline5991"
       transform="matrix(0.42429007,0,0,0.42429007,166.4209,567.33267)" />
    <polyline
       style="display:inline;fill:none;stroke:#000000;stroke-width:4.71375608;stroke-miterlimit:4;stroke-dasharray:none"
       points="341.589,542.344 341.589,537.377 "
       id="polyline5993"
       transform="matrix(0.42429007,0,0,0.42429007,166.4209,567.33267)" />
    <polyline
       style="display:inline;fill:none;stroke:#000000;stroke-width:4.71375608;stroke-miterlimit:4;stroke-dasharray:none"
       points="446.536,542.344 446.536,537.377 "
       id="polyline5995"
       transform="matrix(0.42429007,0,0,0.42429007,166.4209,567.33267)" />
    <polyline
       style="display:inline;fill:none;stroke:#000000;stroke-width:4.71375608;stroke-miterlimit:4;stroke-dasharray:none"
       points="79.219,542.344 551.484,542.344 "
       id="polyline5997"
       transform="matrix(0.42429007,0,0,0.42429007,166.4209,567.33267)" />
    <polyline
       style="display:inline;fill:none;stroke:#000000;stroke-width:4.71375608;stroke-miterlimit:4;stroke-dasharray:none"
       points="131.693,45.703 131.693,50.670 "
       id="polyline5999"
       transform="matrix(0.42429007,0,0,0.42429007,166.4209,567.33267)" />
    <polyline
       style="display:inline;fill:none;stroke:#000000;stroke-width:4.71375608;stroke-miterlimit:4;stroke-dasharray:none"
       points="236.641,45.703 236.641,50.670 "
       id="polyline6001"
       transform="matrix(0.42429007,0,0,0.42429007,166.4209,567.33267)" />
    <polyline
       style="display:inline;fill:none;stroke:#000000;stroke-width:4.71375608;stroke-miterlimit:4;stroke-dasharray:none"
       points="341.589,45.703 341.589,50.670 "
       id="polyline6003"
       transform="matrix(0.42429007,0,0,0.42429007,166.4209,567.33267)" />
    <polyline
       style="display:inline;fill:none;stroke:#000000;stroke-width:4.71375608;stroke-miterlimit:4;stroke-dasharray:none"
       points="446.536,45.703 446.536,50.670 "
       id="polyline6005"
       transform="matrix(0.42429007,0,0,0.42429007,166.4209,567.33267)" />
    <polyline
       style="display:inline;fill:none;stroke:#000000;stroke-width:4.71375608;stroke-miterlimit:4;stroke-dasharray:none"
       points="79.219,45.703 551.484,45.703 "
       id="polyline6007"
       transform="matrix(0.42429007,0,0,0.42429007,166.4209,567.33267)" />
    <text
       style="font-style:normal;font-variant:normal;font-weight:normal;font-stretch:normal;font-size:10px;line-height:123.00000191%;font-family:Sans;-inkscape-font-specification:'Sans, Normal';text-align:center;writing-mode:lr-tb;text-anchor:middle;display:inline;fill:#000000"
       x="222.29694"
       y="809.33484"
       font-size="19pt"
       id="text6013"
       sodipodi:linespacing="123%">600</text>
    <text
       style="font-style:normal;font-variant:normal;font-weight:normal;font-stretch:normal;font-size:10px;line-height:123.00000191%;font-family:Sans;-inkscape-font-specification:'Sans, Normal';text-align:center;writing-mode:lr-tb;text-anchor:middle;display:inline;fill:#000000"
       x="266.82532"
       y="809.33484"
       font-size="19pt"
       id="text6019"
       sodipodi:linespacing="123%">650</text>
    <text
       style="font-style:normal;font-variant:normal;font-weight:normal;font-stretch:normal;font-size:10px;line-height:123.00000191%;font-family:Sans;-inkscape-font-specification:'Sans, Normal';text-align:center;writing-mode:lr-tb;text-anchor:middle;display:inline;fill:#000000"
       x="311.35376"
       y="809.33484"
       font-size="19pt"
       id="text6025"
       sodipodi:linespacing="123%">700</text>
    <text
       style="font-style:normal;font-variant:normal;font-weight:normal;font-stretch:normal;font-size:10px;line-height:123.00000191%;font-family:Sans;-inkscape-font-specification:'Sans, Normal';text-align:center;writing-mode:lr-tb;text-anchor:middle;display:inline;fill:#000000"
       x="355.88168"
       y="809.33484"
       font-size="19pt"
       id="text6031"
       sodipodi:linespacing="123%">750</text>
    <text
       style="font-style:normal;font-variant:normal;font-weight:normal;font-stretch:normal;font-size:10px;line-height:123.00000191%;font-family:Sans;-inkscape-font-specification:'Sans, Normal';text-align:center;writing-mode:lr-tb;text-anchor:middle;display:inline;fill:#000000"
       x="400.41006"
       y="809.33484"
       font-size="19pt"
       id="text6037"
       sodipodi:linespacing="123%">800</text>
    <polyline
       style="display:inline;fill:none;stroke:#000000;stroke-width:2.50534296;stroke-miterlimit:4;stroke-dasharray:none"
       points="79.219,459.570 84.185,459.570 "
       id="polyline6039"
       transform="matrix(0.42429007,0,0,0.42429007,166.4209,567.33267)" />
    <polyline
       style="display:inline;fill:none;stroke:#000000;stroke-width:4.71375608;stroke-miterlimit:4;stroke-dasharray:none"
       points="79.219,376.797 84.185,376.797 "
       id="polyline6041"
       transform="matrix(0.42429007,0,0,0.42429007,166.4209,567.33267)" />
    <polyline
       style="display:inline;fill:none;stroke:#000000;stroke-width:4.71375608;stroke-miterlimit:4;stroke-dasharray:none"
       points="79.219,294.023 84.185,294.023 "
       id="polyline6043"
       transform="matrix(0.42429007,0,0,0.42429007,166.4209,567.33267)" />
    <polyline
       style="display:inline;fill:none;stroke:#000000;stroke-width:4.71375608;stroke-miterlimit:4;stroke-dasharray:none"
       points="79.219,211.250 84.185,211.250 "
       id="polyline6045"
       transform="matrix(0.42429007,0,0,0.42429007,166.4209,567.33267)" />
    <polyline
       style="display:inline;fill:none;stroke:#000000;stroke-width:4.71375608;stroke-miterlimit:4;stroke-dasharray:none"
       points="79.219,128.477 84.185,128.477 "
       id="polyline6047"
       transform="matrix(0.42429007,0,0,0.42429007,166.4209,567.33267)" />
    <polyline
       style="display:inline;fill:none;stroke:#000000;stroke-width:4.66932678;stroke-miterlimit:4;stroke-dasharray:none"
       points="79.219,542.344 79.219,45.703 "
       id="polyline6049"
       transform="matrix(0.42832722,0,0,0.42832722,166.10108,566.15903)" />
    <polyline
       style="display:inline;fill:none;stroke:#000000;stroke-width:4.71375608;stroke-miterlimit:4;stroke-dasharray:none"
       points="551.484,459.570 546.518,459.570 "
       id="polyline6051"
       transform="matrix(0.42429007,0,0,0.42429007,166.4209,567.33267)" />
    <polyline
       style="display:inline;fill:none;stroke:#000000;stroke-width:4.71375608;stroke-miterlimit:4;stroke-dasharray:none"
       points="551.484,376.797 546.518,376.797 "
       id="polyline6053"
       transform="matrix(0.42429007,0,0,0.42429007,166.4209,567.33267)" />
    <polyline
       style="display:inline;fill:none;stroke:#000000;stroke-width:4.71375608;stroke-miterlimit:4;stroke-dasharray:none"
       points="551.484,294.023 546.518,294.023 "
       id="polyline6055"
       transform="matrix(0.42429007,0,0,0.42429007,166.4209,567.33267)" />
    <polyline
       style="display:inline;fill:none;stroke:#000000;stroke-width:4.71375608;stroke-miterlimit:4;stroke-dasharray:none"
       points="551.484,211.250 546.518,211.250 "
       id="polyline6057"
       transform="matrix(0.42429007,0,0,0.42429007,166.4209,567.33267)" />
    <polyline
       style="display:inline;fill:none;stroke:#000000;stroke-width:4.71375608;stroke-miterlimit:4;stroke-dasharray:none"
       points="551.484,128.477 546.518,128.477 "
       id="polyline6059"
       transform="matrix(0.42429007,0,0,0.42429007,166.4209,567.33267)" />
    <polyline
       style="display:inline;fill:none;stroke:#000000;stroke-width:4.66946268;stroke-miterlimit:4;stroke-dasharray:none"
       points="551.484,542.344 551.484,45.703 "
       id="polyline6061"
       transform="matrix(0.42831481,0,0,0.42831481,164.20132,566.16575)" />
    <text
       style="font-style:normal;font-variant:normal;font-weight:normal;font-stretch:normal;font-size:10px;line-height:123.00000191%;font-family:Sans;-inkscape-font-specification:'Sans, Normal';text-align:center;writing-mode:lr-tb;text-anchor:middle;display:inline;fill:#000000"
       x="194.02487"
       y="801.02356"
       font-size="19pt"
       id="text6067"
       sodipodi:linespacing="123%">0</text>
    <text
       style="font-style:normal;font-variant:normal;font-weight:normal;font-stretch:normal;font-size:10px;line-height:123.00000191%;font-family:Sans;-inkscape-font-specification:'Sans, Normal';text-align:center;writing-mode:lr-tb;text-anchor:middle;display:inline;fill:#000000"
       x="194.0737"
       y="765.83002"
       font-size="19pt"
       id="text6073"
       sodipodi:linespacing="123%">5</text>
    <text
       style="font-style:normal;font-variant:normal;font-weight:normal;font-stretch:normal;font-size:10px;line-height:123.00000191%;font-family:Sans;-inkscape-font-specification:'Sans, Normal';text-align:center;writing-mode:lr-tb;text-anchor:middle;display:inline;fill:#000000"
       x="190.84128"
       y="730.78296"
       font-size="19pt"
       id="text6079"
       sodipodi:linespacing="123%">10</text>
    <text
       style="font-style:normal;font-variant:normal;font-weight:normal;font-stretch:normal;font-size:10px;line-height:123.00000191%;font-family:Sans;-inkscape-font-specification:'Sans, Normal';text-align:center;writing-mode:lr-tb;text-anchor:middle;display:inline;fill:#000000"
       x="190.89011"
       y="695.60156"
       font-size="19pt"
       id="text6085"
       sodipodi:linespacing="123%">15</text>
    <text
       style="font-style:normal;font-variant:normal;font-weight:normal;font-stretch:normal;font-size:10px;line-height:123.00000191%;font-family:Sans;-inkscape-font-specification:'Sans, Normal';text-align:center;writing-mode:lr-tb;text-anchor:middle;display:inline;fill:#000000"
       x="190.84128"
       y="660.54474"
       font-size="19pt"
       id="text6091"
       sodipodi:linespacing="123%">20</text>
    <text
       style="font-style:normal;font-variant:normal;font-weight:normal;font-stretch:normal;font-size:10px;line-height:123.00000191%;font-family:Sans;-inkscape-font-specification:'Sans, Normal';text-align:center;writing-mode:lr-tb;text-anchor:middle;display:inline;fill:#000000"
       x="190.89011"
       y="625.42444"
       font-size="19pt"
       id="text6097"
       sodipodi:linespacing="123%">25</text>
    <text
       style="font-style:normal;font-variant:normal;font-weight:normal;font-stretch:normal;font-size:10px;line-height:123.00000191%;font-family:Sans;-inkscape-font-specification:'Sans, Normal';text-align:center;writing-mode:lr-tb;text-anchor:middle;display:inline;fill:#000000"
       x="190.84128"
       y="590.30414"
       font-size="19pt"
       id="text6103"
       sodipodi:linespacing="123%">30</text>
    <polyline
       style="display:inline;fill:none;stroke:#000000;stroke-width:0.5pt;stroke-dasharray:none"
       points="79.219,542.344 79.219,537.377 "
       id="polyline6105"
       transform="matrix(0.42429007,0,0,0.42429007,166.4209,567.33267)" />
    <polyline
       style="display:inline;fill:none;stroke:#000000;stroke-width:0.5pt;stroke-dasharray:none"
       points="79.219,542.344 79.219,542.344 "
       id="polyline6107"
       transform="matrix(0.42429007,0,0,0.42429007,166.4209,567.33267)" />
    <rect
       style="display:inline;fill:#ffffff;fill-opacity:1;stroke:#000000;stroke-width:0.88293332;stroke-opacity:1"
       id="rect5108"
       width="89.788322"
       height="42.447147"
       x="208.19815"
       y="596.17639" />
    <text
       xml:space="preserve"
       style="font-style:normal;font-weight:normal;font-size:40px;line-height:125%;font-family:sans-serif;letter-spacing:0px;word-spacing:0px;display:inline;fill:#000000;fill-opacity:1;stroke:none;stroke-width:1px;stroke-linecap:butt;stroke-linejoin:miter;stroke-opacity:1"
       x="240.24582"
       y="634.60425"
       id="text4162"
       sodipodi:linespacing="125%"><tspan
         sodipodi:role="line"
         id="tspan4164"
         x="240.24582"
         y="634.60425"
         style="font-style:normal;font-variant:normal;font-weight:normal;font-stretch:normal;font-size:10px;line-height:125%;font-family:sans-serif;-inkscape-font-specification:'sans-serif, Normal';text-align:start;writing-mode:lr-tb;text-anchor:start">25000 nm<tspan
   style="font-size:64.99999762%;baseline-shift:super"
   id="tspan4174" /></tspan></text>
    <text
       xml:space="preserve"
       style="font-style:normal;font-variant:normal;font-weight:normal;font-stretch:normal;font-size:10px;line-height:123.00000191%;font-family:Sans;-inkscape-font-specification:'Sans, Normal';text-align:center;letter-spacing:0px;word-spacing:0px;writing-mode:lr-tb;text-anchor:middle;display:inline;fill:#000000;fill-opacity:1;stroke:none;stroke-width:1px;stroke-linecap:butt;stroke-linejoin:miter;stroke-opacity:1"
       x="265.94894"
       y="621.60425"
       id="text4166"
       sodipodi:linespacing="123%"><tspan
         sodipodi:role="line"
         id="tspan4168"
         x="265.94894"
         y="621.60425"
         style="font-style:normal;font-variant:normal;font-weight:normal;font-stretch:normal;font-size:10px;line-height:123.00000191%;font-family:Sans;-inkscape-font-specification:'Sans, Normal';text-align:center;writing-mode:lr-tb;text-anchor:middle">20000 nm<tspan
   style="font-style:normal;font-variant:normal;font-weight:normal;font-stretch:normal;font-size:10px;line-height:123.00000191%;font-family:Sans;-inkscape-font-specification:'Sans, Normal';text-align:center;writing-mode:lr-tb;baseline-shift:super;text-anchor:middle"
   id="tspan4172" /></tspan></text>
    <text
       xml:space="preserve"
       style="font-style:normal;font-variant:normal;font-weight:normal;font-stretch:normal;font-size:10px;line-height:123.00000191%;font-family:Sans;-inkscape-font-specification:'Sans, Normal';text-align:center;letter-spacing:0px;word-spacing:0px;writing-mode:lr-tb;text-anchor:middle;display:inline;fill:#000000;fill-opacity:1;stroke:none;stroke-width:1px;stroke-linecap:butt;stroke-linejoin:miter;stroke-opacity:1"
       x="262.88254"
       y="608.20374"
       id="text4158"
       sodipodi:linespacing="123%"><tspan
         sodipodi:role="line"
         id="tspan4160"
         x="262.88254"
         y="608.20374"
         style="font-style:normal;font-variant:normal;font-weight:normal;font-stretch:normal;font-size:10px;line-height:123.00000191%;font-family:Sans;-inkscape-font-specification:'Sans, Normal';text-align:center;writing-mode:lr-tb;text-anchor:middle">6800 nm<tspan
   style="font-style:normal;font-variant:normal;font-weight:normal;font-stretch:normal;font-size:10px;line-height:123.00000191%;font-family:Sans;-inkscape-font-specification:'Sans, Normal';text-align:center;writing-mode:lr-tb;baseline-shift:super;text-anchor:middle"
   id="tspan4170" /></tspan></text>
    <g
       style="display:inline"
       id="g5082"
       transform="translate(-160.32237,548.01247)">
      <polygon
         transform="matrix(0.42429007,0,0,0.42429007,173.27901,13.801469)"
         id="polygon5984-4"
         points="493.99,99.132 496.818,103.132 499.647,99.132 496.818,95.132 493.99,99.132 "
         style="display:inline;fill:none;stroke:#d55e00;stroke-width:3.53531718;stroke-miterlimit:4;stroke-dasharray:none;stroke-opacity:1" />
      <path
         sodipodi:nodetypes="cc"
         inkscape:connector-curvature="0"
         id="path4238"
         d="m 370.89844,55.862192 25.97656,0"
         style="fill:none;fill-rule:evenodd;stroke:#d55e00;stroke-width:1px;stroke-linecap:butt;stroke-linejoin:miter;stroke-opacity:1" />
    </g>
    <g
       style="display:inline"
       id="g5086"
       transform="translate(-154.503,549.40565)">
      <circle
         id="circle5969-7"
         r="1.2728702"
         cy="67.86219"
         cx="378.06735"
         style="display:inline;fill:none;stroke:#009e73;stroke-width:0.84858017pt;stroke-opacity:1" />
      <path
         sodipodi:nodetypes="cc"
         inkscape:connector-curvature="0"
         id="path4238-0"
         d="m 365.07907,67.86219 25.97656,0"
         style="display:inline;fill:none;fill-rule:evenodd;stroke:#009e73;stroke-width:1px;stroke-linecap:butt;stroke-linejoin:miter;stroke-opacity:1" />
    </g>
    <g
       style="display:inline"
       id="g5090"
       transform="translate(-160.37254,550.76603)">
      <polygon
         transform="matrix(0.42429007,0,0,0.42429007,173.37828,-60.885592)"
         id="polygon5950-4"
         points="500.261,326.876 492.261,326.876 492.261,326.876 492.261,334.876 500.261,334.876 "
         style="display:inline;fill:none;stroke:#0072b2;stroke-width:2pt;stroke-dasharray:none;stroke-opacity:1" />
      <path
         sodipodi:nodetypes="cc"
         inkscape:connector-curvature="0"
         id="path4238-01"
         d="m 370.94861,79.501809 25.97656,0"
         style="display:inline;fill:none;fill-rule:evenodd;stroke:#0072b2;stroke-width:1px;stroke-linecap:butt;stroke-linejoin:miter;stroke-opacity:1" />
    </g>
  </g>
</svg>
