<?xml version="1.0" encoding="utf-8" standalone="no"?><!DOCTYPE svg PUBLIC "-//W3C//DTD SVG 1.1//EN" "http://www.w3.org/Graphics/SVG/1.1/DTD/svg11.dtd">
<svg preserveAspectRatio="xMinYMin meet" width="100%" height="100%" viewBox="0 0 609.375 609.375"  version="1.1" xmlns="http://www.w3.org/2000/svg" xmlns:xlink="http://www.w3.org/1999/xlink">
  <desc>Matlab Figure Converted by PLOT2SVG written by Juerg Schwizer</desc>
  <g id="topgroup">
  <rect x="0" y="0" width="609.375" height="609.375" fill="#ffffff" stroke="none" />
  <g id ="ID000000">
  <clipPath id="ID000001">
    <rect x="117.188" y="45.703" width="434.297" height="481.172"/>
  </clipPath>
      <polygon fill="#ffffff" fill-opacity="1.00" stroke="none" stroke-width="0.5pt" stroke-opacity="1.00" stroke-dasharray="none" points="117.188,526.875 551.484,526.875 551.484,45.703 117.188,45.703 "/>
      <polygon fill="#ffffff" fill-opacity="1.00" stroke="none" stroke-width="0.5pt" stroke-opacity="1.00" stroke-dasharray="none" points="117.188,526.875 551.484,526.875 551.484,526.875 117.188,526.875 "/>
      <polygon fill="#ffffff" fill-opacity="1.00" stroke="none" stroke-width="0.5pt" stroke-opacity="1.00" stroke-dasharray="none" points="117.188,526.875 117.188,526.875 117.188,45.703 117.188,45.703 "/>
    <g>
<g id="ID000002" clip-path="url(#ID000001)" >
<g>
<circle cx="117.188" cy="500.430" r="3.333" fill="#000000" stroke="none" stroke-width="2.0pt" />
<circle cx="135.283" cy="496.906" r="3.333" fill="#000000" stroke="none" stroke-width="2.0pt" />
<circle cx="153.379" cy="492.965" r="3.333" fill="#000000" stroke="none" stroke-width="2.0pt" />
<circle cx="171.475" cy="479.389" r="3.333" fill="#000000" stroke="none" stroke-width="2.0pt" />
<circle cx="189.570" cy="476.138" r="3.333" fill="#000000" stroke="none" stroke-width="2.0pt" />
<circle cx="207.666" cy="472.164" r="3.333" fill="#000000" stroke="none" stroke-width="2.0pt" />
<circle cx="225.762" cy="465.134" r="3.333" fill="#000000" stroke="none" stroke-width="2.0pt" />
<circle cx="243.857" cy="454.297" r="3.333" fill="#000000" stroke="none" stroke-width="2.0pt" />
<circle cx="261.953" cy="446.913" r="3.333" fill="#000000" stroke="none" stroke-width="2.0pt" />
<circle cx="280.049" cy="440.521" r="3.333" fill="#000000" stroke="none" stroke-width="2.0pt" />
<circle cx="298.145" cy="426.895" r="3.333" fill="#000000" stroke="none" stroke-width="2.0pt" />
<circle cx="316.240" cy="419.499" r="3.333" fill="#000000" stroke="none" stroke-width="2.0pt" />
<circle cx="334.336" cy="410.782" r="3.333" fill="#000000" stroke="none" stroke-width="2.0pt" />
<circle cx="352.432" cy="395.162" r="3.333" fill="#000000" stroke="none" stroke-width="2.0pt" />
<circle cx="370.527" cy="388.212" r="3.333" fill="#000000" stroke="none" stroke-width="2.0pt" />
<circle cx="388.623" cy="367.705" r="3.333" fill="#000000" stroke="none" stroke-width="2.0pt" />
<circle cx="406.719" cy="358.156" r="3.333" fill="#000000" stroke="none" stroke-width="2.0pt" />
<circle cx="424.814" cy="337.513" r="3.333" fill="#000000" stroke="none" stroke-width="2.0pt" />
<circle cx="442.910" cy="327.981" r="3.333" fill="#000000" stroke="none" stroke-width="2.0pt" />
<circle cx="461.006" cy="306.417" r="3.333" fill="#000000" stroke="none" stroke-width="2.0pt" />
<circle cx="479.102" cy="292.663" r="3.333" fill="#000000" stroke="none" stroke-width="2.0pt" />
<circle cx="497.197" cy="245.353" r="3.333" fill="#000000" stroke="none" stroke-width="2.0pt" />
<circle cx="515.293" cy="200.024" r="3.333" fill="#000000" stroke="none" stroke-width="2.0pt" />
<circle cx="533.389" cy="141.669" r="3.333" fill="#000000" stroke="none" stroke-width="2.0pt" />
<circle cx="551.484" cy="76.143" r="3.333" fill="#000000" stroke="none" stroke-width="2.0pt" />
</g>
</g>
<g id="ID000003" >
  <g transform="translate(333.398,597.209)">
    <g transform="rotate(-0.0)">
      <text x="0.000" y="0.000" font-family="Helvetica" text-anchor="middle" font-size="28pt" fill="#000000" >Etching (nm)</text>
    </g>
  </g>
</g>
<g id="ID000004" >
  <g transform="translate(38.399,287.227)">
    <g transform="rotate(-90.0)">
      <text x="0.000" y="0.000" font-family="Helvetica" text-anchor="middle" font-size="28pt" fill="#000000" >SPR (nm)</text>
    </g>
  </g>
</g>
<g id="ID000005" >
</g>
    </g>
    <g>
      <polyline fill="none" stroke="#000000" stroke-width="0.5pt" stroke-dasharray="none" points="298.145,526.875 298.145,522.063 "/>
      <polyline fill="none" stroke="#000000" stroke-width="0.5pt" stroke-dasharray="none" points="479.102,526.875 479.102,522.063 "/>
      <polyline fill="none" stroke="#000000" stroke-width="0.5pt" stroke-dasharray="none" points="117.188,526.875 551.484,526.875 "/>
      <polyline fill="none" stroke="#000000" stroke-width="0.5pt" stroke-dasharray="none" points="298.145,45.703 298.145,50.515 "/>
      <polyline fill="none" stroke="#000000" stroke-width="0.5pt" stroke-dasharray="none" points="479.102,45.703 479.102,50.515 "/>
      <polyline fill="none" stroke="#000000" stroke-width="0.5pt" stroke-dasharray="none" points="117.188,45.703 551.484,45.703 "/>
  <g transform="translate(117.188,569.686)">
    <g transform="rotate(-0.0)">
      <text x="0.000" y="0.000" font-family="Helvetica" text-anchor="middle" font-size="28pt" fill="#000000" >0</text>
    </g>
  </g>
  <g transform="translate(298.145,569.686)">
    <g transform="rotate(-0.0)">
      <text x="0.000" y="0.000" font-family="Helvetica" text-anchor="middle" font-size="28pt" fill="#000000" >10</text>
    </g>
  </g>
  <g transform="translate(479.102,569.686)">
    <g transform="rotate(-0.0)">
      <text x="0.000" y="0.000" font-family="Helvetica" text-anchor="middle" font-size="28pt" fill="#000000" >20</text>
    </g>
  </g>
      <polyline fill="none" stroke="#000000" stroke-width="0.5pt" stroke-dasharray="none" points="117.188,406.582 121.999,406.582 "/>
      <polyline fill="none" stroke="#000000" stroke-width="0.5pt" stroke-dasharray="none" points="117.188,286.289 121.999,286.289 "/>
      <polyline fill="none" stroke="#000000" stroke-width="0.5pt" stroke-dasharray="none" points="117.188,165.996 121.999,165.996 "/>
      <polyline fill="none" stroke="#000000" stroke-width="0.5pt" stroke-dasharray="none" points="117.188,526.875 117.188,45.703 "/>
      <polyline fill="none" stroke="#000000" stroke-width="0.5pt" stroke-dasharray="none" points="551.484,406.582 546.673,406.582 "/>
      <polyline fill="none" stroke="#000000" stroke-width="0.5pt" stroke-dasharray="none" points="551.484,286.289 546.673,286.289 "/>
      <polyline fill="none" stroke="#000000" stroke-width="0.5pt" stroke-dasharray="none" points="551.484,165.996 546.673,165.996 "/>
      <polyline fill="none" stroke="#000000" stroke-width="0.5pt" stroke-dasharray="none" points="551.484,526.875 551.484,45.703 "/>
  <g transform="translate(108.502,539.531)">
    <g transform="rotate(-0.0)">
      <text x="0.000" y="0.000" font-family="Helvetica" text-anchor="end" font-size="28pt" fill="#000000" >650</text>
    </g>
  </g>
  <g transform="translate(108.502,419.238)">
    <g transform="rotate(-0.0)">
      <text x="0.000" y="0.000" font-family="Helvetica" text-anchor="end" font-size="28pt" fill="#000000" >700</text>
    </g>
  </g>
  <g transform="translate(108.502,298.945)">
    <g transform="rotate(-0.0)">
      <text x="0.000" y="0.000" font-family="Helvetica" text-anchor="end" font-size="28pt" fill="#000000" >750</text>
    </g>
  </g>
  <g transform="translate(108.502,178.652)">
    <g transform="rotate(-0.0)">
      <text x="0.000" y="0.000" font-family="Helvetica" text-anchor="end" font-size="28pt" fill="#000000" >800</text>
    </g>
  </g>
  <g transform="translate(108.502,58.359)">
    <g transform="rotate(-0.0)">
      <text x="0.000" y="0.000" font-family="Helvetica" text-anchor="end" font-size="28pt" fill="#000000" >850</text>
    </g>
  </g>
      <polyline fill="none" stroke="#000000" stroke-width="0.5pt" stroke-dasharray="none" points="117.188,526.875 117.188,522.063 "/>
      <polyline fill="none" stroke="#000000" stroke-width="0.5pt" stroke-dasharray="none" points="117.188,526.875 117.188,526.875 "/>
    </g>
  </g>
  </g>
</svg>
