<?xml version="1.0" encoding="utf-8" standalone="no"?><!DOCTYPE svg PUBLIC "-//W3C//DTD SVG 1.1//EN" "http://www.w3.org/Graphics/SVG/1.1/DTD/svg11.dtd">
<svg preserveAspectRatio="xMinYMin meet" width="100%" height="100%" viewBox="0 0 609.375 885.000"  version="1.1" xmlns="http://www.w3.org/2000/svg" xmlns:xlink="http://www.w3.org/1999/xlink">
  <desc>Matlab Figure Converted by PLOT2SVG written by Juerg Schwizer</desc>
  <g id="topgroup">
  <rect x="0" y="0" width="609.375" height="885.000" fill="#ffffff" stroke="none" />
  <g id ="ID000000">
  <clipPath id="ID000001">
    <rect x="127.500" y="66.375" width="423.984" height="721.275"/>
  </clipPath>
      <polygon fill="#ffffff" fill-opacity="1.00" stroke="none" stroke-width="0.5pt" stroke-opacity="1.00" stroke-dasharray="none" points="127.500,787.650 551.484,787.650 551.484,66.375 127.500,66.375 "/>
      <polygon fill="#ffffff" fill-opacity="1.00" stroke="none" stroke-width="0.5pt" stroke-opacity="1.00" stroke-dasharray="none" points="127.500,66.375 551.484,66.375 551.484,66.375 127.500,66.375 "/>
      <polygon fill="#ffffff" fill-opacity="1.00" stroke="none" stroke-width="0.5pt" stroke-opacity="1.00" stroke-dasharray="none" points="127.500,787.650 127.500,787.650 127.500,66.375 127.500,66.375 "/>
    <g>
<g id="ID000002" clip-path="url(#ID000001)" >
      <polyline fill="none" stroke="#e948c1" stroke-width="2.0pt" stroke-dasharray="none" points="127.500,88.155 149.816,239.823 168.908,300.145 188.804,336.562 207.308,356.525 226.004,366.684 258.864,392.727 282.086,399.414 309.882,394.323 341.601,399.815 378.536,401.284 421.562,405.637 490.521,351.365 "/>
<g>
</g>
</g>
<g id="ID000003" clip-path="url(#ID000001)" >
      <polyline fill="none" stroke="#c06190" stroke-width="2.0pt" stroke-dasharray="none" points="127.500,128.742 145.565,132.263 176.528,193.148 210.547,301.428 243.512,347.892 277.167,376.531 333.896,392.031 371.282,396.673 "/>
<g>
</g>
</g>
<g id="ID000004" clip-path="url(#ID000001)" >
      <polyline fill="none" stroke="#130d87" stroke-width="2.0pt" stroke-dasharray="none" points="127.500,161.140 137.604,161.339 155.870,207.039 178.215,277.904 197.397,325.857 215.952,351.874 246.688,380.299 270.075,396.876 298.427,402.931 329.783,410.146 368.597,417.293 "/>
<g>
</g>
</g>
<g id="ID000005" clip-path="url(#ID000001)" >
      <polyline fill="none" stroke="#c6ee21" stroke-width="2.0pt" stroke-dasharray="none" points="127.500,323.496 136.048,307.333 144.615,316.937 154.744,327.651 163.854,342.009 173.623,343.944 191.384,358.486 201.184,368.522 211.801,367.637 222.261,371.677 232.741,378.989 246.460,383.010 272.610,369.101 294.505,373.228 322.249,384.007 "/>
<g>
</g>
</g>
<g id="ID000006" clip-path="url(#ID000001)" >
      <polyline fill="none" stroke="#917703" stroke-width="2.0pt" stroke-dasharray="none" points="127.500,121.926 146.080,116.495 176.411,151.240 209.322,249.863 240.210,322.925 274.968,353.796 332.327,383.504 364.988,392.486 403.170,391.688 "/>
<g>
</g>
</g>
<g id="ID000007" clip-path="url(#ID000001)" >
      <polyline fill="none" stroke="#5529ca" stroke-width="2.0pt" stroke-dasharray="none" points="127.500,258.183 137.078,265.954 150.737,305.710 165.086,339.882 177.851,356.173 191.756,368.874 217.246,386.432 233.089,395.599 250.197,400.128 268.920,404.935 289.070,413.318 311.033,415.417 "/>
<g>
</g>
</g>
<g id="ID000008" clip-path="url(#ID000001)" >
      <polyline fill="none" stroke="#4f862a" stroke-width="2.0pt" stroke-dasharray="none" points="127.500,159.399 140.704,154.110 160.908,189.758 183.662,248.242 204.130,312.670 222.227,344.319 252.275,380.195 265.480,384.579 277.598,385.028 289.887,394.746 303.083,399.868 316.055,397.786 350.209,395.072 388.921,404.889 "/>
<g>
</g>
</g>
<g id="ID000009" clip-path="url(#ID000001)" >
      <polyline fill="none" stroke="#9943a6" stroke-width="2.0pt" stroke-dasharray="none" points="127.500,375.069 129.677,360.937 135.405,354.627 141.724,356.478 148.544,363.104 154.840,370.942 164.715,376.263 169.106,381.199 172.759,384.801 176.331,390.246 179.132,387.026 181.558,385.736 186.186,383.761 189.576,388.845 194.152,399.002 198.562,392.527 203.302,392.836 209.267,392.409 219.442,402.580 225.197,402.931 230.066,402.126 237.044,414.546 242.578,410.911 248.934,416.892 262.641,411.878 269.667,407.509 278.472,415.845 287.759,419.133 298.264,420.840 309.345,418.435 "/>
<g>
</g>
</g>
<g id="ID000010" clip-path="url(#ID000001)" >
      <polyline fill="none" stroke="#afbe72" stroke-width="2.0pt" stroke-dasharray="none" points="127.500,285.713 140.939,300.017 159.568,337.237 177.800,362.611 194.646,378.435 214.369,387.844 244.514,402.024 260.249,402.482 277.720,401.456 296.659,402.954 317.218,406.734 339.627,409.955 "/>
<g>
</g>
</g>
<g id="ID000011" clip-path="url(#ID000001)" >
      <polyline fill="none" stroke="#153ae8" stroke-width="2.0pt" stroke-dasharray="none" points="127.500,203.803 139.469,185.816 154.457,223.764 170.257,278.305 186.319,304.349 202.628,321.707 228.941,337.627 242.368,348.511 256.353,350.202 271.953,364.355 289.660,372.397 307.019,375.390 339.596,366.194 373.810,382.051 "/>
<g>
</g>
</g>
<g id="ID000012" >
  <g transform="translate(339.023,857.983)">
    <g transform="rotate(-0.0)">
      <text x="0.000" y="0.000" font-family="Helvetica" text-anchor="middle" font-size="28pt" fill="#000000" >SPR shift (nm)</text>
    </g>
  </g>
</g>
<g id="ID000013" >
  <g transform="translate(38.392,427.950)">
    <g transform="rotate(-90.0)">
      <text x="0.000" y="0.000" font-family="Helvetica" text-anchor="middle" font-size="28pt" fill="#000000" >FWHM (eV)</text>
    </g>
  </g>
</g>
<g id="ID000014" >
</g>
    </g>
    <g>
      <polyline fill="none" stroke="#000000" stroke-width="0.5pt" stroke-dasharray="none" points="339.492,787.650 339.492,780.437 "/>
      <polyline fill="none" stroke="#000000" stroke-width="0.5pt" stroke-dasharray="none" points="127.500,787.650 551.484,787.650 "/>
      <polyline fill="none" stroke="#000000" stroke-width="0.5pt" stroke-dasharray="none" points="339.492,66.375 339.492,73.588 "/>
      <polyline fill="none" stroke="#000000" stroke-width="0.5pt" stroke-dasharray="none" points="127.500,66.375 551.484,66.375 "/>
  <g transform="translate(127.500,835.263)">
    <g transform="rotate(-0.0)">
      <text x="0.000" y="0.000" font-family="Helvetica" text-anchor="middle" font-size="28pt" fill="#000000" >0</text>
    </g>
  </g>
  <g transform="translate(339.492,835.263)">
    <g transform="rotate(-0.0)">
      <text x="0.000" y="0.000" font-family="Helvetica" text-anchor="middle" font-size="28pt" fill="#000000" >100</text>
    </g>
  </g>
  <g transform="translate(551.484,835.263)">
    <g transform="rotate(-0.0)">
      <text x="0.000" y="0.000" font-family="Helvetica" text-anchor="middle" font-size="28pt" fill="#000000" >200</text>
    </g>
  </g>
      <polyline fill="none" stroke="#000000" stroke-width="0.5pt" stroke-dasharray="none" points="127.500,607.331 134.713,607.331 "/>
      <polyline fill="none" stroke="#000000" stroke-width="0.5pt" stroke-dasharray="none" points="127.500,427.012 134.713,427.012 "/>
      <polyline fill="none" stroke="#000000" stroke-width="0.5pt" stroke-dasharray="none" points="127.500,246.694 134.713,246.694 "/>
      <polyline fill="none" stroke="#000000" stroke-width="0.5pt" stroke-dasharray="none" points="127.500,787.650 127.500,66.375 "/>
      <polyline fill="none" stroke="#000000" stroke-width="0.5pt" stroke-dasharray="none" points="551.484,607.331 544.272,607.331 "/>
      <polyline fill="none" stroke="#000000" stroke-width="0.5pt" stroke-dasharray="none" points="551.484,427.012 544.272,427.012 "/>
      <polyline fill="none" stroke="#000000" stroke-width="0.5pt" stroke-dasharray="none" points="551.484,246.694 544.272,246.694 "/>
      <polyline fill="none" stroke="#000000" stroke-width="0.5pt" stroke-dasharray="none" points="551.484,787.650 551.484,66.375 "/>
  <g transform="translate(119.020,800.306)">
    <g transform="rotate(-0.0)">
      <text x="0.000" y="0.000" font-family="Helvetica" text-anchor="end" font-size="28pt" fill="#000000" >0</text>
    </g>
  </g>
  <g transform="translate(119.020,619.987)">
    <g transform="rotate(-0.0)">
      <text x="0.000" y="0.000" font-family="Helvetica" text-anchor="end" font-size="28pt" fill="#000000" >0.05</text>
    </g>
  </g>
  <g transform="translate(119.020,439.669)">
    <g transform="rotate(-0.0)">
      <text x="0.000" y="0.000" font-family="Helvetica" text-anchor="end" font-size="28pt" fill="#000000" >0.1</text>
    </g>
  </g>
  <g transform="translate(119.020,259.350)">
    <g transform="rotate(-0.0)">
      <text x="0.000" y="0.000" font-family="Helvetica" text-anchor="end" font-size="28pt" fill="#000000" >0.15</text>
    </g>
  </g>
  <g transform="translate(119.020,79.031)">
    <g transform="rotate(-0.0)">
      <text x="0.000" y="0.000" font-family="Helvetica" text-anchor="end" font-size="28pt" fill="#000000" >0.2</text>
    </g>
  </g>
      <polyline fill="none" stroke="#000000" stroke-width="0.5pt" stroke-dasharray="none" points="127.500,787.650 127.500,780.437 "/>
      <polyline fill="none" stroke="#000000" stroke-width="0.5pt" stroke-dasharray="none" points="127.500,787.650 127.500,787.650 "/>
    </g>
  </g>
  <g id ="ID000015">
  <clipPath id="ID000016">
    <rect x="0.000" y="0.000" width="609.375" height="885.000"/>
  </clipPath>
    <g>
    </g>
  </g>
  </g>
</svg>
