<?xml version="1.0" encoding="utf-8" standalone="no"?><!DOCTYPE svg PUBLIC "-//W3C//DTD SVG 1.1//EN" "http://www.w3.org/Graphics/SVG/1.1/DTD/svg11.dtd">
<svg preserveAspectRatio="xMinYMin meet" width="100%" height="100%" viewBox="0 0 609.375 890.625"  version="1.1" xmlns="http://www.w3.org/2000/svg" xmlns:xlink="http://www.w3.org/1999/xlink">
  <desc>Matlab Figure Converted by PLOT2SVG written by Juerg Schwizer</desc>
  <g id="topgroup">
  <rect x="0" y="0" width="609.375" height="890.625" fill="#ffffff" stroke="none" />
  <g id ="ID000000">
  <clipPath id="ID000001">
    <rect x="127.500" y="66.797" width="423.984" height="725.859"/>
  </clipPath>
      <polygon fill="#ffffff" fill-opacity="1.00" stroke="none" stroke-width="0.5pt" stroke-opacity="1.00" stroke-dasharray="none" points="127.500,792.656 551.484,792.656 551.484,66.797 127.500,66.797 "/>
      <polygon fill="#ffffff" fill-opacity="1.00" stroke="none" stroke-width="0.5pt" stroke-opacity="1.00" stroke-dasharray="none" points="127.500,66.797 551.484,66.797 551.484,66.797 127.500,66.797 "/>
      <polygon fill="#ffffff" fill-opacity="1.00" stroke="none" stroke-width="0.5pt" stroke-opacity="1.00" stroke-dasharray="none" points="127.500,792.656 127.500,792.656 127.500,66.797 127.500,66.797 "/>
    <g>
<g id="ID000002" clip-path="url(#ID000001)" >
<g>
<circle cx="127.500" cy="141.918" r="3.000" fill="none" stroke="#000000" stroke-width="2.0pt" />
<circle cx="133.710" cy="121.154" r="3.000" fill="none" stroke="#000000" stroke-width="2.0pt" />
<circle cx="140.655" cy="126.040" r="3.000" fill="none" stroke="#000000" stroke-width="2.0pt" />
<circle cx="164.581" cy="174.107" r="3.000" fill="none" stroke="#000000" stroke-width="2.0pt" />
<circle cx="170.311" cy="204.262" r="3.000" fill="none" stroke="#000000" stroke-width="2.0pt" />
<circle cx="177.313" cy="184.210" r="3.000" fill="none" stroke="#000000" stroke-width="2.0pt" />
<circle cx="189.702" cy="170.702" r="3.000" fill="none" stroke="#000000" stroke-width="2.0pt" />
<circle cx="208.800" cy="209.586" r="3.000" fill="none" stroke="#000000" stroke-width="2.0pt" />
<circle cx="221.813" cy="228.213" r="3.000" fill="none" stroke="#000000" stroke-width="2.0pt" />
<circle cx="233.078" cy="219.850" r="3.000" fill="none" stroke="#000000" stroke-width="2.0pt" />
<circle cx="257.090" cy="231.958" r="3.000" fill="none" stroke="#000000" stroke-width="2.0pt" />
<circle cx="270.125" cy="245.745" r="3.000" fill="none" stroke="#000000" stroke-width="2.0pt" />
<circle cx="285.487" cy="259.209" r="3.000" fill="none" stroke="#000000" stroke-width="2.0pt" />
<circle cx="313.014" cy="270.443" r="3.000" fill="none" stroke="#000000" stroke-width="2.0pt" />
<circle cx="325.261" cy="272.511" r="3.000" fill="none" stroke="#000000" stroke-width="2.0pt" />
<circle cx="361.400" cy="261.617" r="3.000" fill="none" stroke="#000000" stroke-width="2.0pt" />
<circle cx="378.229" cy="274.405" r="3.000" fill="none" stroke="#000000" stroke-width="2.0pt" />
<circle cx="414.608" cy="268.166" r="3.000" fill="none" stroke="#000000" stroke-width="2.0pt" />
<circle cx="431.408" cy="251.108" r="3.000" fill="none" stroke="#000000" stroke-width="2.0pt" />
<circle cx="469.408" cy="265.417" r="3.000" fill="none" stroke="#000000" stroke-width="2.0pt" />
<circle cx="493.647" cy="241.090" r="3.000" fill="none" stroke="#000000" stroke-width="2.0pt" />
<circle cx="577.023" cy="296.918" r="3.000" fill="none" stroke="#000000" stroke-width="2.0pt" />
<circle cx="656.905" cy="290.623" r="3.000" fill="none" stroke="#000000" stroke-width="2.0pt" />
<circle cx="759.744" cy="330.332" r="3.000" fill="none" stroke="#000000" stroke-width="2.0pt" />
<circle cx="875.220" cy="347.865" r="3.000" fill="none" stroke="#000000" stroke-width="2.0pt" />
</g>
</g>
<g id="ID000003" >
  <g transform="translate(339.023,862.927)">
    <g transform="rotate(-0.0)">
      <text x="0.000" y="0.000" font-family="Helvetica" text-anchor="middle" font-size="28pt" fill="#000000" >SPR Shift (nm)</text>
    </g>
  </g>
</g>
<g id="ID000004" >
  <g transform="translate(38.392,430.663)">
    <g transform="rotate(-90.0)">
      <text x="0.000" y="0.000" font-family="Helvetica" text-anchor="middle" font-size="28pt" fill="#000000" >FWHM (eV)</text>
    </g>
  </g>
</g>
<g id="ID000005" >
</g>
    </g>
    <g>
      <polyline fill="none" stroke="#000000" stroke-width="0.5pt" stroke-dasharray="none" points="339.492,792.656 339.492,785.398 "/>
      <polyline fill="none" stroke="#000000" stroke-width="0.5pt" stroke-dasharray="none" points="127.500,792.656 551.484,792.656 "/>
      <polyline fill="none" stroke="#000000" stroke-width="0.5pt" stroke-dasharray="none" points="339.492,66.797 339.492,74.055 "/>
      <polyline fill="none" stroke="#000000" stroke-width="0.5pt" stroke-dasharray="none" points="127.500,66.797 551.484,66.797 "/>
  <g transform="translate(127.500,840.361)">
    <g transform="rotate(-0.0)">
      <text x="0.000" y="0.000" font-family="Helvetica" text-anchor="middle" font-size="28pt" fill="#000000" >0</text>
    </g>
  </g>
  <g transform="translate(339.492,840.361)">
    <g transform="rotate(-0.0)">
      <text x="0.000" y="0.000" font-family="Helvetica" text-anchor="middle" font-size="28pt" fill="#000000" >50</text>
    </g>
  </g>
  <g transform="translate(551.484,840.361)">
    <g transform="rotate(-0.0)">
      <text x="0.000" y="0.000" font-family="Helvetica" text-anchor="middle" font-size="28pt" fill="#000000" >100</text>
    </g>
  </g>
      <polyline fill="none" stroke="#000000" stroke-width="0.5pt" stroke-dasharray="none" points="127.500,671.680 134.759,671.680 "/>
      <polyline fill="none" stroke="#000000" stroke-width="0.5pt" stroke-dasharray="none" points="127.500,550.703 134.759,550.703 "/>
      <polyline fill="none" stroke="#000000" stroke-width="0.5pt" stroke-dasharray="none" points="127.500,429.727 134.759,429.727 "/>
      <polyline fill="none" stroke="#000000" stroke-width="0.5pt" stroke-dasharray="none" points="127.500,308.750 134.759,308.750 "/>
      <polyline fill="none" stroke="#000000" stroke-width="0.5pt" stroke-dasharray="none" points="127.500,187.773 134.759,187.773 "/>
      <polyline fill="none" stroke="#000000" stroke-width="0.5pt" stroke-dasharray="none" points="127.500,792.656 127.500,66.797 "/>
      <polyline fill="none" stroke="#000000" stroke-width="0.5pt" stroke-dasharray="none" points="551.484,671.680 544.226,671.680 "/>
      <polyline fill="none" stroke="#000000" stroke-width="0.5pt" stroke-dasharray="none" points="551.484,550.703 544.226,550.703 "/>
      <polyline fill="none" stroke="#000000" stroke-width="0.5pt" stroke-dasharray="none" points="551.484,429.727 544.226,429.727 "/>
      <polyline fill="none" stroke="#000000" stroke-width="0.5pt" stroke-dasharray="none" points="551.484,308.750 544.226,308.750 "/>
      <polyline fill="none" stroke="#000000" stroke-width="0.5pt" stroke-dasharray="none" points="551.484,187.773 544.226,187.773 "/>
      <polyline fill="none" stroke="#000000" stroke-width="0.5pt" stroke-dasharray="none" points="551.484,792.656 551.484,66.797 "/>
  <g transform="translate(119.020,805.313)">
    <g transform="rotate(-0.0)">
      <text x="0.000" y="0.000" font-family="Helvetica" text-anchor="end" font-size="28pt" fill="#000000" >0</text>
    </g>
  </g>
  <g transform="translate(119.020,684.336)">
    <g transform="rotate(-0.0)">
      <text x="0.000" y="0.000" font-family="Helvetica" text-anchor="end" font-size="28pt" fill="#000000" >0.02</text>
    </g>
  </g>
  <g transform="translate(119.020,563.359)">
    <g transform="rotate(-0.0)">
      <text x="0.000" y="0.000" font-family="Helvetica" text-anchor="end" font-size="28pt" fill="#000000" >0.04</text>
    </g>
  </g>
  <g transform="translate(119.020,442.383)">
    <g transform="rotate(-0.0)">
      <text x="0.000" y="0.000" font-family="Helvetica" text-anchor="end" font-size="28pt" fill="#000000" >0.06</text>
    </g>
  </g>
  <g transform="translate(119.020,321.406)">
    <g transform="rotate(-0.0)">
      <text x="0.000" y="0.000" font-family="Helvetica" text-anchor="end" font-size="28pt" fill="#000000" >0.08</text>
    </g>
  </g>
  <g transform="translate(119.020,200.430)">
    <g transform="rotate(-0.0)">
      <text x="0.000" y="0.000" font-family="Helvetica" text-anchor="end" font-size="28pt" fill="#000000" >0.1</text>
    </g>
  </g>
  <g transform="translate(119.020,79.453)">
    <g transform="rotate(-0.0)">
      <text x="0.000" y="0.000" font-family="Helvetica" text-anchor="end" font-size="28pt" fill="#000000" >0.12</text>
    </g>
  </g>
      <polyline fill="none" stroke="#000000" stroke-width="0.5pt" stroke-dasharray="none" points="127.500,792.656 127.500,785.398 "/>
      <polyline fill="none" stroke="#000000" stroke-width="0.5pt" stroke-dasharray="none" points="127.500,792.656 127.500,792.656 "/>
    </g>
  </g>
  </g>
</svg>
